<svg width="420" height="500" viewBox="0 0 420 500" fill="none" xmlns="http://www.w3.org/2000/svg">
<rect x="3" y="3" width="414" height="491" fill="black"/>
<path d="M0 250V500H88.9H177.8L174.9 494.7C173.4 491.9 171.8 487.6 171.4 485.3C171.1 482.9 170.4 481.2 170 481.5C169.1 482.1 166.5 475.4 165 468.5C164.3 465.7 163.5 456.7 163.1 448.5C162.4 434.1 162.2 433.2 158.6 425C152 410.2 148.2 400.6 147.5 397.5C147.2 395.8 148 397.2 149.3 400.5C150.5 403.8 152.2 407.4 152.9 408.5L154.2 410.5L153.4 408.5C153 407.4 151.2 402.3 149.5 397.2C146.4 388 146.3 387.9 145.3 391.2C144.4 394.4 144.3 394.2 142 385C138.9 372.4 138.2 358.8 140.4 353.6C142.6 348.3 142.5 348.1 138 341.4C134.7 336.7 134 334.9 134.5 332.5C134.8 330.9 134.3 323.9 133.4 317C131.7 303.9 132 296.6 134.4 290.8C135.7 287.8 136.5 287.2 140.1 286.6C142.4 286.2 146.8 284.4 149.9 282.5C153 280.7 157.8 278.1 160.5 276.8C166.4 274.1 167.1 272.2 163.7 267.2C161.5 263.9 161.2 262.1 160.7 251.4C160.2 240.6 159.7 238.1 155.6 225.9C153.1 218.6 151 213.4 151 214.5C150.9 216.1 150.6 215.8 149.5 213.5C146 205.8 148.7 215.3 154.9 232.5C157.6 240 158.5 251.3 157.2 260.8C156 269.2 153.9 272.4 150.2 271.5C147.1 270.7 146.2 271.5 146.8 274.5C147.1 276.5 147.8 277 150.4 277.1L153.5 277.2L150.2 278.6C145.6 280.6 143.3 279.6 142 275.2C140.6 270.1 140.7 267.4 142.5 265.7C143.8 264.3 143.2 262.7 137.5 251.7C133.9 244.8 130.3 238.9 129.5 238.7C123.2 236.2 116.9 270.5 119.9 292C120.4 296.1 121.4 303.7 122.1 308.7C122.7 313.8 123.6 318 124 318C125.6 318 126.1 310.6 124.9 302.9C123.7 294.5 124.1 288.1 126.1 283.6C127.6 280.3 128.2 280.3 130.2 283.8C132.2 287.2 131.6 294.4 129.4 293.6C125.9 292.2 126.1 305.2 129.7 312.8C132.1 317.8 132.5 319.7 132.5 328C132.5 335.9 132.9 338.2 134.8 341.7C137.1 346.1 137.4 349.5 136.3 357.6C135.4 364.1 134.2 360.9 134.1 351.9C134 347.9 133.3 343.7 132.3 341.4C131.1 338.7 130.6 334.8 130.5 328.8C130.5 323.9 130.1 319.9 129.6 319.8C129.1 319.6 128.1 321.6 127.3 324.2C124.4 334.4 122.3 330.4 118.4 306.5C115.9 291.2 115.6 287.1 115.5 264.5C115.5 243.1 115.8 238.7 117.3 233.6C118.3 230.4 119.3 228 119.5 228.2C119.7 228.4 119.3 232.2 118.6 236.5C117.8 240.9 116.9 247.9 116.6 252L116.1 259.5L117.4 252.3C119.2 243 122.6 232.6 125.7 227.2C128.6 222.2 131.7 221.6 132.5 225.7C134.3 234 139.4 248.3 142.6 253.5L146.1 259.5L145.6 255.6L145.1 251.7L146.8 254.1C147.7 255.4 149 258.7 149.5 261.5C150.1 264.2 151 266.4 151.5 266.4C152.1 266.3 153.3 264 154.3 261.4C157.4 252.9 156.2 241.2 150.7 225C145.1 208.5 143.1 197.8 142.3 179.5C141.3 155.5 145.2 141.4 154.5 134.8C161 130.2 160.4 128.1 152 125.9C145.8 124.3 145.7 124.2 149.6 124.1C153.6 124 162.7 126.2 166.5 128.3C168.4 129.3 177.6 129.3 179.3 128.3C179.7 128 179.6 127.2 178.9 126.4C178.3 125.6 178 125 178.4 125C178.8 125 178.3 123.9 177.4 122.5C176.5 121.1 175.2 120 174.5 120C173.8 120 173 119.3 172.6 118.5C172.3 117.7 170.6 116.1 168.8 115C167 113.9 165.9 113 166.4 113C167.7 113 163 108.1 160.5 106.7C158.2 105.5 152.1 104.1 146.5 103.5C143.7 103.3 143.1 103.4 144.5 104C145.6 104.5 145.9 104.9 145.2 104.9C140.4 105.2 121.9 90.5 120.6 85.5C120.2 84.1 119.3 83 118.6 83C117.3 83 116 81 116 78.9C116 77.4 119.7 77.9 120.3 79.4C121 81.1 125 83.5 125 82.2C125 81.7 122.6 78.9 119.6 75.9C113.4 69.7 110.3 62.4 113.1 60.7C114.5 59.8 114.4 59.2 112.3 55.4C110.9 53 110.2 50.6 110.5 50C111.4 48.5 114 50.7 114 53C114 54 114.7 55.3 115.5 56C118.3 58.3 117.2 51.8 114 47.1C109 39.8 110.5 33.5 117 34.2C120.2 34.5 120.5 34.8 120.8 38.2C121 41.1 120.8 42 119.6 42C118.7 42 118 41.1 118 40C118 38.9 117.3 38 116.5 38C114.4 38 114.6 40.6 117.1 45.7C118.4 48.3 119.4 52.9 119.7 57.7C120.1 63.4 120.9 66.6 122.7 69.7C125.7 74.8 124 75.5 120.8 70.5C118.4 66.9 117 66.1 117 68.3C117 69.1 119.3 72.1 122.1 75.1C124.8 78.1 128.2 82.9 129.6 85.8C132.4 91.8 132.5 92.4 130.8 91.5C130.1 91.1 131.8 93 134.6 95.7C139.9 100.8 145.3 103.2 148.5 101.9C149.7 101.4 149.9 101.1 149.1 101.1C146.5 100.9 140.4 96.1 137.3 91.7C135.7 89.4 133.3 84.8 132 81.5C130.6 78.2 128.6 74.6 127.4 73.5C126.2 72.4 124.7 70.5 124.1 69.3C123.1 67.4 123.2 67.1 124.5 67.6C126.4 68.4 126.4 67.8 124.5 61.6C122.6 55.4 122.6 49.7 124.4 43.7C125.6 39.7 125.6 39 124.4 39C122.7 39 122.6 36.6 124.3 35.3C124.9 34.7 127.3 34 129.5 33.6C131.7 33.3 134.6 32.7 136 32.3C138.3 31.7 138.4 31.8 137 33.5C136.2 34.5 134 35.9 132.2 36.7C128.3 38.3 126.1 42.8 125.3 50.4C124.7 56.5 127.8 67.5 130 67.5C130.8 67.5 132 68.6 132.7 70C134.7 74.2 134.1 70.9 131.5 63.5C130.2 59.6 129 54.5 129 51.9C129 46.3 132.8 38.2 137.6 34C140.7 31.3 141.7 31 148 31C159.5 31 161.7 33.1 151.9 34.9C148.5 35.5 144.4 36.7 142.7 37.7C139.7 39.5 139.3 40.2 137 49.2C135.5 54.8 134 54.6 134 48.9C134 46.7 133.6 45.1 133.1 45.4C131.5 46.4 131 52.1 132.2 57.3L133.3 62.5L134.2 59.3C134.6 57.5 135.5 55.8 136 55.5C137.3 54.7 139.6 59.5 141 66.2C142.3 72.8 143.4 74 145.1 70.8L146.3 68.5L147.6 71.5L148.9 74.5L149 71.2C149 65.5 150.3 64.2 155.6 64.5C159 64.7 161.9 65.8 165.9 68.5C172.4 72.6 174.1 74.9 173.3 77.9C172.8 79.9 172.7 79.9 170.1 78.1C167.5 76.3 163 76.7 163 78.8C163 81.7 165.4 86 167 86C168 86 169.5 86.3 170.4 86.6C171.6 87.1 172 86.6 172 84.6C172 81.7 174.5 80.1 176.2 81.8C177.6 83.2 180.9 101 180.8 106.5C180.8 110.1 181.4 111.6 184.5 115.5C186.6 118 189.2 120.6 190.2 121.1C191.3 121.7 191.9 122.4 191.6 122.7C190.8 123.6 196.2 127.5 198.3 127.5C200.4 127.5 203.2 130.8 202.4 132.2C202.1 132.6 203.2 134.9 204.8 137.1C207.6 140.9 207.9 141 208.2 138.8C208.5 137.2 206.9 134.4 202.6 129.2C195.5 120.6 195.2 120.2 195.7 123.8C196.1 126.3 195.9 126.2 192.4 122.1C190.3 119.7 188.5 117 188.4 116.1C188.2 115.2 187.8 113.1 187.5 111.5C187.1 109.1 187.2 108.9 187.9 110.5C189 112.8 189 112.8 189.4 98.9C189.7 89.6 191.2 83.5 195.3 75.3C198.1 69.7 198.2 68.8 197 66.6C196 64.6 194.7 64 190.1 63.5C187 63.1 183.2 62.2 181.7 61.4C178.1 59.7 158 44.8 158 43.9C158 43.5 159.9 42.9 162.3 42.5C173 40.9 172.9 40.9 175.1 37C177.4 32.9 180.2 31.8 191 30.5C196.3 29.8 213.2 31.9 212.4 33.1C212.1 33.6 210 33.7 207.7 33.4C204.3 32.9 203.2 33.2 201.6 34.8C199.2 37.5 200.1 38.6 205.1 39.3C207.4 39.6 209.8 40.4 210.4 41.1C211.2 42 211 42.1 209.5 41.6C208.4 41.2 205.9 40.6 204 40.2C200.8 39.7 200.6 39.8 201.9 41.3C202.6 42.2 205.9 44.8 209.2 47C213.6 49.9 216.3 51 219.1 51C221.2 51 223.2 51.5 223.6 52.2C224.1 53 223 53.1 219.4 52.7C214.1 52 214.2 52.2 221.7 56.8C227.1 60.1 228.8 62.9 230 70.1C231.2 77.9 231.3 90.5 230 85.2C229.1 81.5 228 79.8 228 82.3C228 83.2 226.1 85.3 223.7 86.9C214.9 93.2 215.2 92.9 217.9 95.1L220.3 97.1L218.2 99.2C216.1 101.3 216 101.4 212.4 99.6C208.8 97.9 208.6 97.9 206.7 99.8C203.7 102.9 201 111.7 202.1 115.3C202.9 118.2 207.4 123.8 206.9 121.5C206.2 117.6 209 119.9 210.5 124.5C211.4 127.2 212.2 127.6 217.5 128.6C224.7 129.9 227 131 232.7 136.3C241.3 144.2 245.5 157 246.6 178.3C247.1 188 247.9 191.5 252.2 205C257 220 262.4 232 264.8 232.8C266.8 233.4 266.1 230.9 262.9 225.6C261.1 222.8 257.5 214 254.7 206C249.8 191.7 249.7 191.2 249 175.5C248 154.3 245.8 145.9 239.3 137.4C235.5 132.4 225.2 125.3 220.5 124.5C215.8 123.6 209 120.4 209 119C209 118.4 210.7 118 212.7 118C216 118 216.2 117.9 214.5 116.6C211.3 114.3 212.2 109.9 217.1 103.6C221.8 97.6 222.5 97.3 225.4 99.5C227.3 101 234.1 101.6 235.2 100.4C235.6 100.1 235 98 234 95.7C232.4 92 232.3 90 233.1 77.5C234.1 61.7 233.5 58.5 228.9 54.5C225.9 52.1 225.9 52 228.2 52C229.8 52 228.2 50.7 223 47.9C213.8 42.9 212.8 42 216.3 42H219.1L217.1 39.2C213.8 34.6 214 31 217.5 31C219.5 31 220.2 31.6 220.7 34C221.5 38.3 222.7 38.6 224.5 35C226.9 30.4 230.3 30.9 232.3 36.1C234.1 40.6 235.4 40.6 236.3 36C236.8 33.7 237.5 33 239.4 33C241.5 33 241.8 33.5 241.8 36.4C241.8 38.3 242.1 40.8 242.5 42C243.1 43.9 243.6 44.1 248.6 43.4C253.4 42.8 254 43 254 44.6C254 45.6 252.8 47.7 251.3 49.2C249.7 50.9 249.2 52 250 52C250.7 52 249 54.4 246.2 57.4C240.6 63.3 238.4 69 237.4 80C236.9 85.7 237.1 86.8 238.9 89.2C240.1 90.7 242.7 92.9 244.8 94.1C246.8 95.2 250.4 98.5 252.8 101.3C256.1 105.3 257 107.2 257 110.1C257 114.2 254.4 117 250.5 117C245.9 117.1 245.5 118.6 249.1 122.8C251.8 126 253 129 255.2 137.6C256.7 143.6 258.2 150.5 258.6 152.9C258.9 155.3 260.5 160.2 262.1 163.8C263.7 167.3 265 171.1 265 172.1C265 173.2 263.6 177.3 261.9 181.3C258.1 190 257.8 195.8 260.7 205C261.8 208.6 263.3 213.5 264 215.9C264.9 219.3 265.4 220 266.2 218.9C266.9 217.8 267.3 217.8 267.7 218.8C268 219.5 269.3 221.3 270.6 222.9C277.7 231.3 286 252.3 288.4 267.8C289.2 272.6 289.8 275.1 289.9 273.3C290.2 262.9 281.5 235.6 274.5 224.8C266.7 213 265.7 209.9 265.6 198.1C265.5 186.9 266.6 184.6 269.5 189.7C270.5 191.5 270.9 191.8 270.6 190.5C270.4 189.4 269.6 185.1 269 181C267.3 170.6 264.4 158.1 261.5 149.1C258.6 140.3 258.4 138.8 260.5 139.7C261.6 140.1 261.1 138.5 259 134.9C257.2 132 255.1 127.9 254.2 125.7L252.7 121.7L255.6 119.3C257.2 118.1 259.2 117 260.1 117C262.8 117 262.9 115.9 261 110.9C258.2 103.9 254.4 98.5 250.2 95.8C248.2 94.4 244.8 92.3 242.8 91C238.4 88.1 237.7 85.3 239 75.9C240.2 67.5 242.8 62.2 247.2 58.7C253.3 53.9 257.1 49.8 258.3 46.7C258.7 45.6 260.1 45 262.2 45C265.2 44.9 265.3 44.8 263.5 43.8C262.4 43.1 258.1 41.9 254 41C247.1 39.6 246.5 39.3 246.5 37C246.5 33.6 250.3 31.8 256.2 32.4C263.7 33.2 272.3 38.9 275.6 45.2C276.9 47.7 276.9 48.1 275.5 48.6C274.7 48.9 273.3 49 272.5 48.6C271.7 48.3 271 48.5 271 49.1C271 49.7 268.6 51.2 265.8 52.6C262.9 54 261.4 54.8 262.5 54.5C263.6 54.1 267.2 53.3 270.5 52.8C280.8 50.9 281.2 48.9 272.8 39.4L267.6 33.5L271.8 33.2C278 32.7 281.7 35.2 284.7 41.6C286.1 44.7 287.2 49.1 287.3 52C287.5 55.9 287.8 57 289 56.8C291.6 56.3 291.2 52.5 287.6 43.4C283.4 33.2 283.4 33 285.9 33C287.1 33 288 34 288.5 35.7C290.4 43.7 294.3 54.9 295 54.5C296.5 53.6 299 55.2 299 57.1C299 58.9 298.1 59 286.6 59C274.9 59 268 60.1 268 62.1C268 62.6 270 63 272.5 63C275.8 63 277 63.4 277 64.5C277 65.6 275.8 66 272 66C268.8 66 267 66.4 267 67.2C267 67.9 272.2 73.4 278.5 79.5C284.8 85.5 291.1 92.5 292.4 95C293.8 97.5 295 99.3 295 99C295 98.7 294.3 94.9 293.5 90.5C291.9 82.3 291.1 80.6 286.3 75.4C279.8 68.3 279.8 68.3 280.9 66.2C281.7 64.7 283.4 64.2 289.5 63.7C300.3 62.9 300.4 62.8 299.7 49.5C299.2 39.5 299.3 38.7 300.6 40.5C305.3 46.6 311 63.6 311 71.3C311 78.9 304.2 87.6 303.9 80.3L303.8 77.5L303 80C302.6 81.4 302.2 85.5 302.1 89.2C302 96.1 301.5 97 299.1 94.7C298.3 94.1 300.8 99.4 304.5 106.6L311.2 119.6L310 131.6C308.7 144.1 307.1 149.9 307 142.2C307 139.6 306.6 138.1 306 138.5C305.4 138.9 304.9 137.1 304.8 133.8C304.8 130.9 304.3 133.9 303.9 140.5C303.4 147.1 302.5 157.7 301.7 164C300 177.9 301 184.9 302.9 172.5C303.6 168.1 304.5 160.7 304.9 156C305.4 150.3 305.6 158.2 305.8 180.2C305.9 200.2 305.5 213.2 305 213.5C304.4 213.9 304 213.3 304 212.4C304 211.4 303.7 210.9 303.4 211.3C302.7 211.9 307.6 240.9 309.1 244.6C310.6 248.6 310.2 252.5 307.5 260.2C304.6 268.4 304.5 269.1 306.3 268.7C307.7 268.5 307.7 270.5 306.6 283.9C306.1 290.5 306.1 293 306.9 292.6C308.8 291.4 308.1 293.9 305.9 296.1C304.4 297.6 303.6 297.9 303 297C302.5 296.2 302.1 296.3 301.7 297.4C301.3 298.3 301.6 298.9 302.3 298.7C303 298.6 303.3 299.2 303.1 300C302.9 300.8 302.7 301.9 302.6 302.5C302 305.4 300.8 308 300 308C299.5 308 299.3 308.8 299.6 309.7C300.1 311.2 300 311.3 299.1 310C298.3 308.9 298 310.3 298 315.8C298 321.3 297.6 323.2 296.5 323.6C295.6 324 295 325.4 295.1 326.9L295.2 329.5L296 327C296.7 324.7 296.8 324.8 296.9 328.1C297 330.1 296.3 333 295.5 334.6C294.4 336.7 294.4 337.6 295.2 338.1C296.1 338.7 296.1 339.5 295.3 341.3C294.7 342.6 293.8 345.9 293.4 348.6C292.7 353.2 292.6 353.3 291.9 350.5L291.2 347.5L291.1 350.9C291.1 352.8 290.7 354.1 290.4 353.7C290.1 353.4 290.1 350.8 290.5 347.9C291 344.4 291.5 343.2 292.1 344.1C292.7 345.1 293 344.9 293 343.2C293 342 293.5 341 294 341C294.6 341 295 340.5 295 339.9C295 339.4 294.6 339.1 294.1 339.4C292.5 340.4 292.3 337.9 292.7 328C293 322.8 292.8 316.7 292.3 314.5C291.5 311.1 291.3 311.9 291.4 319.5C291.4 324.4 290.9 331.6 290.2 335.5C289.5 339.3 288.6 344 288.4 345.9C288.1 347.7 287.7 349 287.5 348.9C287.4 348.7 286.7 343.3 286.1 337C284.9 324 282.5 314.6 278.1 304.7C274.8 297.3 267.6 288.9 262.9 287C260.3 285.9 259.5 286 257.4 287.6C256 288.6 253.9 291.1 252.7 293L250.6 296.5L252.8 294.6C256.3 291.6 255.4 294.3 250.7 300.6C243.1 311 243 311.9 250.6 302.5C259.2 291.8 261.2 291.1 267.3 296.1C271.7 299.7 277.4 310.4 279.5 318.8C280.3 321.9 281.6 331.8 282.5 340.7C284.2 358.6 285.1 362.5 287.6 361.6C288.8 361.1 289.1 361.4 288.6 362.6C288.3 363.4 288 364.4 288 364.6C288 365.9 284 364.7 283.6 363.2C282.7 360.2 281.1 349.1 279.6 334C277.8 317.1 277.1 314.5 272.7 306.5C269.6 301 264.3 296 261.5 296C259.8 296 252.7 302.4 248.8 307.3L245.5 311.5L249.8 307.7C257.7 300.7 263.1 300.1 268.4 305.6C272.8 310.1 273.9 313.8 274.6 325.5C275.2 334.5 279.5 365.4 280.7 368.7C282.1 372.7 283.3 373.3 285.1 370.9C286.6 368.9 287 368.8 288.4 369.9C289.3 370.6 290 371.7 290 372.2C290 372.8 289.4 372.8 288.6 372.1C287.5 371.2 286.8 371.5 285.2 373.7C283.5 376 282.8 376.3 281.4 375.4C280.4 374.8 279.2 373 278.8 371.4C277 364.8 272 334.8 271 324.6C269.5 310.1 267 305.5 259.9 304.4C256.9 303.9 255.8 304.4 251.7 308C249.1 310.4 245.8 314.4 244.5 317.1C240.9 324.1 241.4 324.2 245.8 317.4C250.1 310.8 255.2 306 258 306C261.3 306 264.6 307.7 266.3 310.4C267.4 312 268.5 317.7 269.5 326.4C270.3 333.8 271.4 341.8 271.9 344.2C272.4 346.6 273.6 353.9 274.5 360.5C276 371.9 278.4 381 279.9 381C280.2 381 281.5 380.3 282.6 379.5C283.8 378.7 285 378.4 285.4 378.8C285.8 379.1 285.8 378.6 285.4 377.6C284.9 376.3 285 375.9 285.8 376.4C286.4 376.7 287.2 376.5 287.6 375.9C288 375.1 287.9 375 287.2 375.4C285.8 376.2 285.7 375.1 286.9 373.1C287.6 372 287.9 372.2 288.5 373.9C289.1 376 285.8 383.9 282.6 388C280.3 390.9 277.9 397.3 276.4 404.4C274.9 411.5 272.1 435.4 272 441.9C272 445.2 272 445.3 274 443.5C275.1 442.5 276.9 439.7 278.2 437.2C281.4 430.6 281.6 433.6 278.4 440.5C276.9 443.7 273.7 448.2 271.3 450.5C266.8 454.8 266.2 458.3 270.1 457.3C271.8 456.8 278 447 278 444.6C278 444 278.9 441.8 280 439.7C281.1 437.7 282 435.2 282.1 434.3C282.1 432.6 282.2 432.6 282.8 434.2C283.4 435.5 283.9 435 285.5 431.8C286.9 428.9 287.6 428.2 287.8 429.4C288.4 432.2 285 445.3 282.9 448.2C281.9 449.7 281 451.4 281 452C281 452.5 280.6 453 280 453C279.5 453 279.7 451.1 280.5 448.9C282.8 442.5 282.1 440.8 279.8 447C278.7 450 277.1 453.9 276.4 455.7C275.6 457.4 275 460.1 275 461.7V464.5L277 461.2C279.9 456.5 280.3 457.3 277.7 462.6C273.8 470.7 263.8 489.6 264.3 488C266.1 481.4 270.5 469.2 271.4 468.1C272.3 467 272.1 466.8 270.4 467.4C269 467.8 267.8 467.4 266.6 466.1C263.5 462.7 263.1 458 265.1 447.9C266.1 442.7 266.9 435.8 266.8 432.5C266.7 426.9 266.7 427.1 265.9 435C265.5 439.9 264.1 446.3 262.7 450.1C260.5 455.6 260 459.1 259.9 467.2C259.9 467.9 260.2 470.4 260.6 472.6C261 475.6 261.7 476.7 262.9 476.6C265.5 476.4 265.3 480.2 262.2 490.4L259.2 500H339.6H420V250V0H210H0V250ZM22.9 21.2C24 22.2 24.3 22.2 24.7 21.2C25 20.6 25.6 20 26.2 20C26.8 20 26.7 20.7 25.9 21.6C24.9 22.9 24.9 23.5 25.9 25.2C27.4 27.7 26.8 28.6 25 26.5C23.8 25.1 23.5 25.1 21.9 26.6C19.8 28.5 19.2 27.2 21.2 25.2C22.2 24.2 22.2 23.5 21.2 22C19.8 19.8 20.9 19.3 22.9 21.2ZM174.9 34.6C175.1 34.8 174.7 35.6 174.1 36.4C173.2 37.5 171.5 37.8 167.7 37.4C163.5 37 163 37.1 164.9 38C168.8 39.7 166.5 40.3 161.9 38.7C159.5 37.9 156.9 37.5 156 37.8C155.1 38.2 156.2 38.9 159 39.6C164.1 41 163.2 41.2 154.5 41C149.7 40.9 147.9 41.3 145.7 43C142.2 45.8 142.2 47.6 145.8 45.1C147.3 44 149.6 42.9 151 42.5C153.3 41.9 153.3 42 150.5 43.8C148.9 44.8 146.7 46.6 145.8 47.7C143.8 49.9 143 53.7 144.5 54.2C145.1 54.4 145.6 53.5 145.8 52.3C146.2 49.5 150.7 45 153.2 45C154.3 45 156.1 45.6 157.3 46.2C159.4 47.4 159.4 47.5 156.1 48C154 48.3 151.9 49.5 150.7 51.2C147.9 54.9 149 55.6 152.6 52.5C155 50.3 156.1 50 159.5 50.5C161.7 50.8 164.8 52 166.5 53.1L169.5 55L165 54.4L160.5 53.7L165.5 58.3C169.8 62.2 171.1 62.9 174.7 62.8C177.3 62.8 180.8 63.7 184.1 65.4C187 66.8 190 68 190.7 68C194 68 190.1 74.9 184.7 78.7C181.8 80.7 181 81.9 181.4 83.4C181.7 84.6 182 86.6 182 87.9V90.3L184.5 88L187 85.7V89C187 90.9 186.3 96.6 185.3 101.7C183.9 110 183.8 111.2 185.2 112.7C188.2 116.2 188.2 117.4 185.3 114.7C182.5 112.1 182.2 111.1 181.7 104.2C181.1 93.4 178.5 80.9 175.9 75.8C173.4 70.9 162.8 59.5 158.7 57.4C155.4 55.6 153.1 56.6 150 61C146.7 65.7 144.3 64.9 141.3 58.4C138.3 51.8 138.5 46.9 142 41.9C144.8 38 148.6 36.4 157.2 35.5C160.9 35.2 164.2 34.5 164.5 34C164.9 33.3 174 33.8 174.9 34.6ZM150 105C150 105.5 149.7 106 149.3 106C148.8 106 147.4 106.3 146 106.6L143.5 107.1L146 105.6C149 103.8 150 103.6 150 105ZM155.1 107.2L158.5 108.4L155.5 109.6C153.8 110.4 153.2 110.9 154.2 111C155.1 111 156.2 111.5 156.5 112C156.9 112.7 155.6 112.9 152.8 112.5C149.7 112.1 149 112.2 150.5 112.9C152 113.6 151.3 113.9 147.2 113.9C139.1 114 132.9 115.9 129.3 119.3C127.5 121 126 123 126 123.7C126 124.4 125 127 123.8 129.5C122.1 133 121.4 133.7 120.9 132.3C120.6 131.3 119.4 134.6 118.1 140.6C116.8 146 114.6 154.5 113.2 159.4C110.6 168 110.6 168.3 112.5 169.6C114.9 171.4 114.9 171.4 118.8 169C121 167.6 122 166.3 122 164.5C122 163.1 122.7 161.7 123.5 161.4C124.3 161 124.7 160.3 124.4 159.8C124 159.2 123.4 159.3 122.9 160.1C122.2 161.2 122 161.1 122 159.7C122 158.8 122.4 158 122.9 158C123.3 158 123.6 156.8 123.3 155.2C123 152.9 123.1 152.8 123.9 154.5C124.8 156.3 124.9 156.2 124.9 153.7C125 152.2 124.6 151 124 151C122.7 151 122.7 139 124 137C125.1 135.3 125.4 137.2 125.2 145.5L125.1 150.5L126 145.4C127.2 138.9 130.6 131 132.2 131C132.8 131 134.3 130.1 135.5 129C136.6 127.9 139.1 126.8 141 126.5L144.5 125.9L140.6 127.4C138.5 128.2 136.2 129.4 135.6 130C134.8 130.8 135.2 130.9 137.3 130.1C144.4 127.4 147.5 129.7 144.7 135.6C143 139 141.1 140.1 140.8 137.7C140.5 134.9 139.2 150.1 139.1 158.3C139.1 163.2 138.6 166.9 138.1 166.6C137.6 166.2 137 173 136.8 182.3C136.5 197.9 135.5 203 133 203C132.4 203 132 201.8 132 200.2C132 197.8 131.6 198.2 128.9 203C127.2 206 124.3 212.1 122.4 216.5C120.6 220.9 119.1 224 119 223.4C118.9 220.6 123.3 209 126.3 204C129.9 197.9 132.5 192.2 131.8 191.5C131.6 191.3 129.1 195.4 126.3 200.8C120.5 211.9 116.6 224 113.9 239L112.1 249.5L112.6 236.1C113.2 222.4 115 213.9 119.1 205.7C121.9 200.3 122.3 201.2 119.9 207.2C116.2 216.5 115.3 219.4 114.6 224L114 228.5L115.4 224.5C116.2 222.3 117.8 217.3 119 213.5C120.1 209.6 123 203.1 125.4 199C130.9 189.3 132 186 132 178.6C132 174 132.3 172.9 133.1 174C133.9 175.1 134 174.6 133.6 172C132.5 164.3 131.8 151.5 132.6 152.3C133.1 152.7 134 160.2 134.6 168.8C135.5 181.3 135.8 182.9 135.9 176.5C136 168.8 134.6 153.2 133.3 148.1L132.7 145.7L131.5 148L130.3 150.3L129.6 147.6C129 145.1 127 143.9 127 146C127 146.5 127.5 147 128 147C129.6 147 129.2 149.7 127.5 150.4C126.7 150.7 126 151.7 126 152.7C126 154.3 126.2 154.3 127.1 153C128 151.8 128.1 151.8 127.6 153.3C127.3 154.4 126.8 156.3 126.5 157.6C126.2 158.9 125.8 161.1 125.5 162.5C125.2 164 124.5 164.8 123.9 164.4C123.2 164 123 164.5 123.4 165.8C123.9 167.2 123.5 168.2 122.3 168.9C121.2 169.5 121 170 121.8 170C122.9 170 122.9 170.3 121.8 171.4C119.9 173.2 114 174.5 114 173.1C114 172.5 113.3 172 112.5 172C108.9 172 109 168.5 113 154.5C117.4 139.2 119.2 130.8 117.9 131.6C115.7 132.9 117.5 129.7 122.6 123.2C129.7 114 135.3 110.6 142.9 110.7C146.4 110.7 147.6 110.5 146.1 110.1C143.7 109.4 143.7 109.4 147.1 107.7C151.2 105.7 150.9 105.7 155.1 107.2ZM164 112C164.8 112.5 165.1 113 164.5 113C164 113 162.8 112.5 162 112C161.2 111.5 161 111 161.5 111C162.1 111 163.2 111.5 164 112ZM164.7 116.6C164.4 116.9 163.5 117 162.8 116.7C162 116.4 162.3 116.1 163.4 116.1C164.5 116 165.1 116.3 164.7 116.6ZM164.8 120.6C170.5 121.9 175.9 123.5 176.8 124.1C178.3 125 178.2 125.1 176.5 124.5C168.9 122 153.5 119 148.7 119C141.7 119 136.5 121.4 132 126.7C130.2 128.8 129.3 129.5 129.9 128.3C131.6 124.9 138.8 119.3 142.8 118.2C147.3 117 151.3 117.4 164.8 120.6ZM171.7 118.6C171.4 118.9 170.5 119 169.8 118.7C169 118.4 169.3 118.1 170.4 118.1C171.5 118 172.1 118.3 171.7 118.6ZM128.1 133.7C126.9 135.7 126.7 135.1 127.6 132.5C128 131.6 128.5 131.1 128.7 131.4C129 131.6 128.7 132.7 128.1 133.7ZM120.5 164.9C119.4 167.7 118 163.9 118.6 160C119.7 153.1 120.5 152.4 120.8 157.9C121 160.8 120.8 164 120.5 164.9ZM140.3 205.6C140.7 206 141 205.7 141 205C141 204.3 141.2 203.9 141.4 204.1C143.1 205.7 153 246.8 153 251.8C153 257.3 151.4 257.5 148.4 252.5C146.9 249.9 144.6 246.6 143.4 245.3C142.1 243.9 140.4 240.7 139.6 238.2C137.5 232 136.1 214.7 137.1 207.9C137.5 204.9 138 196.6 138.1 189.5L138.3 176.5L139 190.7C139.3 198.5 139.9 205.2 140.3 205.6ZM152.9 239C153 240.3 152.9 240.3 152 239C151.5 238.2 151.1 236.6 151.1 235.5V233.5L152 235.5C152.5 236.6 152.9 238.2 152.9 239ZM293.6 359.9C291.8 363.4 291.6 364.4 293 363.5C293.6 363.2 294 363.4 294 363.9C294 364.5 293.3 365 292.4 365C291 365 291 365.3 292 366.5C293.5 368.3 291.9 368.5 290.2 366.8C288.7 365.3 288.6 363.6 290.1 364.6C290.9 365 291 364.5 290.5 363C290.1 361.6 290.2 361 290.7 361.3C291.3 361.7 291.5 360.9 291.2 359.5C290.9 357.7 291.2 357 292.4 357C293.5 357 294 356 294.2 353.7L294.3 350.5L294.7 353.7C294.9 355.4 294.4 358.2 293.6 359.9ZM289.7 359.2C289.4 359.9 289.2 359.4 289.2 358C289.2 356.6 289.4 356.1 289.7 356.7C289.9 357.4 289.9 358.6 289.7 359.2ZM290.6 368.5C292.3 370.1 292 370.3 289.6 369.4C288.7 369.1 288 368.4 288 367.9C288 366.6 288.9 366.8 290.6 368.5ZM146 395.7C144.9 397.4 144.9 397.4 145.4 395.7C145.7 394.7 146.1 393.1 146.1 392.2C146.2 390.7 146.3 390.7 146.7 392.2C146.9 393.2 146.6 394.7 146 395.7ZM287 420.5C286.4 422 286.2 423.5 286.5 423.8C286.8 424.1 287 423.8 287 423.2C287 422.5 287.5 422 288 422C288.6 422 289 423.2 289 424.7C289 426.9 288.8 427.2 288 426C287.1 424.7 287 424.7 287 426C287 426.8 286.1 428.8 285 430.5L283.1 433.4L283.4 429C283.6 426.5 284.1 423.6 284.5 422.6C285.1 421.3 285 420.9 284.2 421.3C283.6 421.7 282.4 424.4 281.4 427.2C280.5 430.1 279.1 433 278.4 433.7C277.7 434.4 277 435.5 276.7 436.2C276.1 438.1 275.3 437 274.6 432.9C274.1 429.8 274.3 429.2 275.9 428.7C276.9 428.5 279.2 426.3 281 423.9C282.7 421.5 284.4 419.7 284.6 420C284.9 420.3 285.6 419.7 286.2 418.7C287.7 416 288.2 417.3 287 420.5ZM282.1 431.1C281.6 432.4 281.1 433 281.1 432.3C281 430.8 282.1 427.8 282.6 428.3C282.9 428.5 282.6 429.8 282.1 431.1ZM371 452.9L371.6 455.3L373.3 452.7C374.3 451.2 375.9 450 377 450C379.5 450 379.5 450.4 376.8 454.1L374.5 457.1L376.8 461.1L379.1 465H376.7C375.1 465 373.9 464.1 373 462.2L371.6 459.5L371.2 462.2C371 464.1 370.3 465 369 465C367.4 465 367.1 464 366.8 458.2C366.6 454.5 366.6 451.1 366.8 450.7C367.6 449.1 370.4 450.6 371 452.9ZM384.1 453.2C384.1 455 384.2 458.4 384.3 460.7C384.5 464.6 384.3 465 382.3 465C380.1 465 380 464.6 380 458.2C380 451.1 380.4 450 382.7 450C383.5 450 384 451.2 384.1 453.2ZM397 452C399.1 454.1 399.7 460.3 398 463C397.5 463.9 397.5 464.9 398.1 465.6C399.4 467.2 397.2 468.6 395.7 467.1C395.1 466.5 393.8 466 392.8 466C389.7 466 386 461.5 386 457.7C386 451.2 392.7 447.7 397 452ZM391.8 470.7C386.9 470.9 379.1 470.9 374.3 470.7C369.4 470.6 373.4 470.4 383 470.4C392.6 470.4 396.6 470.6 391.8 470.7Z" fill="white"/>
<path d="M149.8 109.7C150.5 110 151.4 109.9 151.7 109.6C152.1 109.3 151.5 109 150.4 109.1C149.3 109.1 149 109.4 149.8 109.7Z" fill="white"/>
<path d="M133.5 132C133.1 132.6 132.4 132.7 131.8 132.4C131.1 132 131 132.2 131.4 132.8C131.8 133.5 131.5 134 130.8 134C129.8 134 129.9 134.3 131 135.1C132.1 135.9 132.2 136.3 131.2 136.7C130.6 136.9 130.2 137.5 130.5 138C130.8 138.5 132.6 137.4 134.5 135.7C136.4 134 137.8 132.4 137.5 132.2C137.2 131.9 136.2 132.4 135.2 133.3C132.6 135.7 131.3 135.4 133.5 133C134.5 131.9 135 131 134.7 131C134.4 131 133.8 131.5 133.5 132Z" fill="white"/>
<path d="M128.6 140.6C128.3 141.5 128.7 143.1 129.5 144.3C130.3 145.5 131 145.9 131 145.3C131 144.6 130.6 143.8 130 143.5C129.5 143.2 129 142.4 129 141.9C129 141.3 129.5 141.2 130 141.5C130.6 141.8 131 141.7 131 141.1C131 139.4 129.2 139 128.6 140.6Z" fill="white"/>
<path d="M134.6 141.5C134.3 142.3 134.5 144.2 135 145.6C135.6 147 136.1 150 136.1 152.3C136.2 156.2 136.3 156.1 137.2 150.6C138.2 144.6 137.7 140 136.1 140C135.6 140 135 140.7 134.6 141.5Z" fill="white"/>
<path d="M117.4 171.6C115.6 173 115.6 173.1 117.8 172C119 171.4 120 170.7 120 170.5C120 169.7 119.5 169.9 117.4 171.6Z" fill="white"/>
<path d="M143.6 219C144.6 224.4 146.2 227.3 145.4 222.5C145.1 220.3 144.4 217.8 143.9 217C143.2 216 143.1 216.6 143.6 219Z" fill="white"/>
<path d="M142 227.6C142 232.3 143.1 237 144.1 236.4C145.5 235.5 145.1 228.6 143.5 226.4C142.1 224.6 142.1 224.7 142 227.6Z" fill="white"/>
<path d="M146.1 228.5C146.1 229.6 146.7 233.3 147.5 236.8C148.3 240.3 148.8 243.6 148.4 244.1C147.7 245.4 149 249.1 150 248.5C150.4 248.2 150.2 245 149.5 241.3C147.5 231.1 146.2 226.3 146.1 228.5Z" fill="white"/>
<path d="M390.6 454.5C388.9 458.9 391 463.8 393.9 462.1C395.7 460.9 394.9 453.6 392.9 453.2C392 453 391 453.6 390.6 454.5Z" fill="white"/>
<path d="M190.4 31.9C190.1 32.2 187.6 33.1 184.8 34C181.9 34.9 179.1 36.4 178.2 37.7L176.8 40L180.3 38.5C184.9 36.6 185.6 36.6 184 38.6C182.3 40.6 176.5 43 173.1 43.1C170.5 43.2 170.5 43.2 173.5 44.1C175.3 44.6 177.8 44.6 179.8 44C182.7 43.3 183.1 43.4 182.8 44.8C182.4 47.2 176.9 47.5 171.2 45.6C168.7 44.7 167 44.4 167.5 44.9C168.1 45.4 170.9 46.5 173.8 47.5C176.7 48.4 178.9 49.4 178.7 49.6C178.5 49.8 176.4 49.3 174 48.5C168.1 46.4 166.6 46.8 171.5 49.1C173.7 50.1 177.1 51 179.1 51C184.3 51 189.1 52.1 188.4 53.1C187.7 54.3 178.8 54.2 175.6 53C172 51.7 172.4 52.6 176.2 54.6C179.3 56.2 186.9 56.1 192.8 54.4C197.2 53.1 194.9 55.7 190.3 57.2L185.5 58.8L189.5 59C195.2 59.3 196 59.1 199.7 56.3C202.8 53.9 203.1 53.8 205.5 55.4C206.9 56.3 208 57.6 208 58.2C208 58.8 208.3 59.1 208.6 58.8C208.9 58.4 211 59 213.3 60.1C215.6 61.1 218.4 61.9 219.5 61.9C221.5 61.9 221.5 61.9 219.6 60.7C218.5 60 214.8 56.9 211.2 53.7C203.5 46.9 201.2 46.3 195.9 50.1C194.4 51.1 192.4 52 191.3 52C190.2 52 191.3 50.9 194.1 49.2L198.7 46.5L195.3 44.2L191.8 42L188.3 44.1C183.3 47.2 183.1 45.6 188.2 42.3C190.5 40.8 192.7 39.1 192.8 38.7C193 38.3 194.3 36.6 195.6 35.1L198 32.2L194.5 31.8C192.5 31.6 190.7 31.6 190.4 31.9Z" fill="white"/>
<path d="M140 35.2C134.4 39 135.5 40.1 141.7 36.8C148.9 32.9 148.8 33 145.8 33C144.4 33 141.8 34 140 35.2Z" fill="white"/>
<path d="M253 36C253 37.2 270 45.3 270.8 44.5C271.6 43.7 268.7 40.8 264.1 37.8C259.7 35 253 34 253 36Z" fill="white"/>
<path d="M276 38.2C276 39.5 282 45.4 282.6 44.7C283.6 43.7 280.1 38.3 278 37.7C276.9 37.4 276 37.6 276 38.2Z" fill="white"/>
<path d="M227.5 40.3C226.9 42.7 226.3 43.1 224.3 42.7C221.1 42.1 221.8 43.6 225.9 46.3L229.3 48.4L228.8 46.2C228 43.2 231.2 43.3 238.1 46.4C243.6 49 245.3 49 244.3 46.5C244 45.6 242.4 45 240.1 45C236.3 45 231.9 42.7 229.6 39.4C228.2 37.6 228.1 37.6 227.5 40.3Z" fill="white"/>
<path d="M235.2 49.8C235.7 51.4 235.3 52 233.6 52.2L231.4 52.5L233.7 55.9L236 59.3V56.1C236 53.5 236.4 53 238.4 53C241.3 53 242 54.6 240.8 58C240.3 59.4 240.2 60 240.7 59.5C241.1 58.9 243 56.9 244.8 54.9L248.1 51.3L245.1 51.8C243.1 52.1 240.8 51.4 238.4 49.9C234.7 47.6 234.7 47.6 235.2 49.8Z" fill="white"/>
<path d="M261.5 49.2C258.8 50.6 255 54.2 255 55.1C255 55.5 257.7 54.6 261 52.9C266.9 50 268.7 48 265.3 48C264.3 48 262.6 48.6 261.5 49.2Z" fill="white"/>
<path d="M282.4 50.7C282.5 51.9 281.5 52.6 279.5 53.1L276.5 53.7L279.3 54.5C282.6 55.4 285.7 53.2 284.7 50.6C283.9 48.5 282.2 48.6 282.4 50.7Z" fill="white"/>
<path d="M265.5 55C263.9 55.7 264.2 55.9 267.2 55.9C269.2 56 271.2 55.5 271.5 55C272.2 53.8 268.3 53.8 265.5 55Z" fill="white"/>
<path d="M304.5 58.3C303.5 64.5 305.8 75.4 307.7 73.8C309.5 72.3 309.3 66.6 307.1 59.5L305.3 53.5L304.5 58.3Z" fill="white"/>
<path d="M255 58.5C249.7 62.4 249.1 64.8 250.3 75.9C251.1 83.7 251.8 85.3 256.9 90.8C262.5 96.8 265 100.6 267 106.5C269.2 113 269.6 121 267.8 123.9C266.9 125.4 267.1 126.9 269 131.4C270.7 135.7 271.1 138.3 270.8 142.2C270.5 145.1 269.8 147.6 269.2 147.8C268.6 148 268.8 149.7 270 152.3C271.7 156.2 273.5 164.3 274.3 171.5C274.5 173.1 274.7 167.3 274.7 158.5C274.7 149.7 274.8 139.6 275 136C275.2 131.3 274.4 126.3 272.2 117.8C268.6 104.3 266.5 99.8 260.4 91.8C255 84.9 253.2 80.9 252.4 73.7C251.6 66.9 253.2 61.9 257.3 58C261.5 54.1 260.6 54.3 255 58.5Z" fill="white"/>
<path d="M272.5 57C269.2 57.4 265.5 58 264.2 58.4C261.6 59.3 259.9 62.8 260.7 65.8C260.9 66.9 260.7 68.1 260.1 68.5C259.4 68.9 261.6 72 265.7 76.6C269.5 80.6 273.7 86.1 275.1 88.7C276.6 91.4 278.5 93.6 279.6 93.8C280.6 94 282.8 94.6 284.3 95.2C286.6 96.1 287 96.7 286.6 98.7C286.1 100.3 286.4 101 287.3 101C288.1 101 289.5 102.5 290.5 104.4C292 107.2 292.1 108.2 291.1 111C290.5 112.8 290 116.9 290 120.1C290 129.3 287.8 132.4 286.6 125C286.3 122.8 285.6 121 285.1 121C284.1 121 283.3 125.1 282.5 135.5L281.9 142.5L284.7 136.3C286.2 132.8 288 130.2 288.5 130.3C290.5 131 290.2 144.1 288.1 150.5C287 153.8 285.8 158.5 285.5 160.9C285.1 163.3 283.7 167.6 282.4 170.4C280.4 174.8 280 177 280 186.3C280 196.9 280.1 197.1 283.4 202.3C286.3 206.7 287.1 209.2 288.4 218C289.2 223.8 291.5 235.5 293.5 244C296.2 256.2 296.9 261 296.5 266.5C296.2 272.1 296.3 272.7 297 269.5C297.5 266.9 297.7 270.3 297.4 279.5C297 289.9 297.3 294.5 298.3 297.4C299.7 301 299.7 301.1 300.2 298.7C300.5 297.2 300.2 295.9 299.6 295.7C298.8 295.4 298.6 290.8 298.8 280.8C299.1 265.5 298.4 259.2 294.5 241.5C293.2 235.4 291.2 224.4 290.1 217C288.3 205.1 287.8 203.3 285.6 201.5C282.3 198.8 280.6 191.6 281.3 182.9C281.7 177.6 282.7 174.6 285.4 169.8C290.9 159.8 292.1 153.5 292 134.1C291.9 122.9 292.2 116.4 293 115C294.5 112.2 293.7 107.7 290.1 99.8C286.9 92.9 285.6 91.3 275.7 82.7C264 72.6 260.3 64.7 265.1 60.4C266.8 58.9 269.1 58.4 276.2 58.1C282 57.9 284.8 57.5 283.9 56.9C282.4 55.9 281.3 55.9 272.5 57Z" fill="white"/>
<path d="M206.5 61.4C204.8 63.1 204 65 204 67.5C204 71.5 204.8 71.9 207.3 69C209.6 66.3 210.7 66.5 211.4 69.6C212.2 72.8 211.6 73.5 205.3 76.9C201.7 78.9 199.8 80.9 197.3 85.4C195.4 88.6 194.2 91.5 194.5 91.8C194.7 92.1 197.2 90.2 199.9 87.7C202.7 85.1 205.4 83 206 83C207.2 83 207 83.5 202.7 90C199.9 94.1 199.9 94.3 202.2 92.2C203.6 91 205.9 90 207.6 90C210.1 90 212.1 88.5 218.3 82.1C224.5 75.7 226 73.6 226 71.1C226 67.5 223.5 65.5 217.6 64.4C215.4 64 212.6 62.6 211.4 61.3L209.1 58.8L206.5 61.4Z" fill="white"/>
<path d="M256.5 61.4C255.6 62.8 255 65 255.2 66.5C255.6 69.5 257.6 69.5 257.3 66.5C257.2 65.4 257.5 63.3 258 61.7C259.1 58.4 258.5 58.2 256.5 61.4Z" fill="white"/>
<path d="M245.6 63.8C243.3 66.4 240 77.1 240 81.9C240 86.7 241.1 88.1 249 93.2C253.7 96.3 256.7 99.3 259.9 104C263.8 109.9 264.2 110.2 263.6 107.1C262.7 102.2 259.4 97.4 253.8 92.9C251.1 90.8 248.5 89 248 89C247.6 89 246.5 87.9 245.6 86.6C244.2 84.3 244.2 83.4 246.1 74C248.4 62.8 248.3 60.9 245.6 63.8Z" fill="white"/>
<path d="M136.7 67.8C136.2 70.3 136.6 72.2 138.6 75.8L141.1 80.5L140.6 75.8C140.3 73.2 139.4 69.6 138.7 67.8L137.4 64.5L136.7 67.8Z" fill="white"/>
<path d="M236.1 67.6C236.1 68.7 236.4 69 236.7 68.2C237 67.5 236.9 66.6 236.6 66.3C236.3 65.9 236 66.5 236.1 67.6Z" fill="white"/>
<path d="M297.1 71.7C298.5 74.4 298.8 76.7 298.5 81.4L298 87.5L300.2 83C302.9 77.3 303.3 69.4 300.8 69.8C299.9 69.9 298.9 69.6 298.5 69C298.2 68.5 297.3 68 296.5 68C295.5 68 295.7 68.9 297.1 71.7Z" fill="white"/>
<path d="M235.2 74C235.2 75.4 235.4 75.9 235.7 75.2C235.9 74.6 235.9 73.4 235.7 72.7C235.4 72.1 235.2 72.6 235.2 74Z" fill="white"/>
<path d="M134 74.2C134 75.1 133.6 76 133.1 76.2C131.2 76.9 136.3 87.2 141.1 92.4C147.1 99 156.3 103.9 159.2 102.1C160.5 101.3 161.6 101.3 163 102C165.2 103.2 165.7 105 163.9 105C162.1 105 172.3 113.9 174.2 114C175.6 114 175.5 113.4 173.4 109.7C169.4 102.7 167.8 101.3 160.8 99.1C150.4 95.7 141.4 87.9 136.9 78.5C135.3 75.2 134 73.2 134 74.2Z" fill="white"/>
<path d="M153.7 73.7C152.5 74.9 153 77.1 155.6 83.1C158.2 88.8 160.5 90.5 161.6 87.6C162.2 86 156.6 73 155.2 73C154.7 73 154 73.3 153.7 73.7Z" fill="white"/>
<path d="M293 77.2C294.1 79.6 295 83.5 295 86C295 92.9 297.6 101.6 302.5 111.4C308.5 123.3 308.2 120.8 301.8 105.7C297.6 95.8 296.5 92 296 85.5C295.4 77.7 293.9 73 292 73C291.5 73 292 74.9 293 77.2Z" fill="white"/>
<path d="M147.2 79.8C144.2 82.9 145.1 85.3 150.2 87.9C152.5 89 154.5 89.8 154.7 89.6C154.9 89.4 153.8 86.6 152.3 83.4L149.5 77.4L147.2 79.8Z" fill="white"/>
<path d="M258.5 79C257.8 80.2 259.2 82.7 264.9 90.7C267.3 94.1 269.7 96.7 270.2 96.4C272.3 95.1 270.7 90 266.4 84.2C262 78.3 259.8 76.8 258.5 79Z" fill="white"/>
<path d="M234.3 84.5C234.3 86.7 234.5 87.5 234.7 86.2C234.9 85 234.9 83.2 234.7 82.2C234.4 81.3 234.2 82.3 234.3 84.5Z" fill="white"/>
<path d="M235 89.7C235 90.3 235.9 91.5 237 92.5C238.1 93.5 238.7 94.6 238.5 95C238.3 95.4 238.9 96.5 240 97.5C241.1 98.5 242 99.9 242 100.7C242 101.4 242.4 102 242.9 102C244.6 102 245.2 100 244 98.5C241.6 95.7 245 96.9 248.1 99.9C251.4 103.2 251.9 107.3 249.3 110.2C247.4 112.3 248.8 112.6 251.4 110.7C252.7 109.8 253.1 108.4 252.8 105.5C252.5 101.8 252 101.2 246 97.2C242.4 94.9 238.5 92 237.3 90.9C236 89.7 235 89.2 235 89.7Z" fill="white"/>
<path d="M173.5 95.5C173.8 97.1 174.5 101 175 104L175.9 109.5L175.6 102.9C175.4 99.2 174.8 95.4 174.1 94.4C173.2 92.8 173.1 92.9 173.5 95.5Z" fill="white"/>
<path d="M200 100C198.9 101.1 198 101.7 198 101.2C197.9 100.8 196.8 103.2 195.4 106.4C193.6 110.5 193 113.3 193.4 115.4L194 118.5L191.4 115.5C189.8 113.7 189.2 113.3 189.9 114.6C191 116.9 194 119.7 194 118.5C194 118 194.9 118.5 196.1 119.6C197.3 120.6 198.5 121.3 198.9 121.2C199.2 121 200.5 122.8 201.8 125.2C203.1 127.5 204.8 130.2 205.7 131C207.1 132.3 207.1 132.2 206.5 130L205.7 127.5L208 129.5L210.3 131.5L208.6 128.3C207.7 126.6 206.5 124.8 205.9 124.5C205.4 124.1 203.5 122 201.9 119.8C198.4 114.9 198.1 110.3 200.9 103C202 100.3 202.6 98 202.4 98C202.2 98 201.1 98.9 200 100Z" fill="white"/>
<path d="M293 101.1C293 101.3 293.7 103.7 294.5 106.4C295.3 109.1 296 112.8 296 114.6C296 116.5 296.9 119.4 298 121.2C299.1 123 300 125.6 300 127C300 129.4 299.9 129.4 298 126.2C296.9 124.5 295.8 123 295.5 123C295.2 123 295 129.6 295.1 137.7C295.1 152.8 293.5 165.2 290.5 172.4C288.8 176.5 288.5 185.6 290 189.6C291.4 193.3 290.9 193.4 287.3 190C285.5 188.3 283.8 187 283.4 187C281.6 187 284.2 194.6 286.8 197C289.1 199.1 289.9 200.9 290.4 205.1C291.9 217.5 295.3 238.1 297.2 247C298.8 254.3 299.4 260.7 299.5 274.8C299.8 292.4 300.1 295.2 301.8 293.6C303.8 291.5 301.1 241.8 298.9 240.4C298.5 240.2 298.3 239.3 298.6 238.5C299 237.7 298.5 231.5 297.6 224.8C296.7 218 295.6 208.4 295.1 203.3C294.6 198.3 293.4 192.8 292.6 191.1C290.4 186.9 290.6 185.2 294.1 175.2C300.6 156.9 301.1 154 301.1 134.2C301.1 118 300.9 115.2 298.9 109C297.6 105.2 296.4 102.3 296.2 102.5C295.9 102.8 295.1 102.5 294.3 101.9C293.6 101.3 293 100.9 293 101.1ZM300.7 287.7C300.4 288.7 300.2 288.1 300.2 286.5C300.2 284.8 300.4 284.1 300.7 284.7C300.9 285.4 300.9 286.8 300.7 287.7Z" fill="white"/>
<path d="M224.3 102.8C222.8 103.7 219.7 111 220.4 111.7C220.7 112 222 111 223.3 109.6C227.4 105.2 237 106.2 237 111.1C237 112 238.6 115.2 240.6 118.1C245.3 125 246.4 126.1 245.1 122.8C244.5 121.3 244.3 119.4 244.6 118.6C244.9 117.9 243.7 116.1 241.9 114.6C238.4 111.7 238.6 111 243.3 109.4C248.4 107.7 247.4 106.5 240.4 106.4C236.8 106.4 233.5 105.9 233.2 105.3C231.5 102.7 226.6 101.3 224.3 102.8Z" fill="white"/>
<path d="M281.9 102.4C281.7 102.6 279.9 103 278 103.2C275.4 103.5 274.4 104.1 274.2 105.7C273.9 107.9 276.5 114 277.8 114C278.2 114 280 111.3 281.8 108C284.1 103.8 284.7 102 283.7 102C283 102 282.1 102.2 281.9 102.4Z" fill="white"/>
<path d="M284 110.1C280.7 114.7 280.7 114.9 281.8 116.7C282.4 117.6 283.6 116.7 285.8 113.8C287.6 111.5 289 109.1 289 108.4C289 105.5 286.9 106.2 284 110.1Z" fill="white"/>
<path d="M180.5 115C181.5 116.1 182.8 117 183.3 117C183.9 117 183.5 116.1 182.5 115C181.5 113.9 180.2 113 179.7 113C179.1 113 179.5 113.9 180.5 115Z" fill="white"/>
<path d="M177.1 115.9C175.8 116.7 177.8 118.9 181.7 120.9C186.2 123.2 186.2 121.5 181.7 117.8C179.8 116.3 177.8 115.5 177.1 115.9Z" fill="white"/>
<path d="M234.7 117.8C235 119 235.6 120.3 236.1 120.6C236.6 120.9 237 121.5 237 122C237 122.4 234.7 122 232 120.9C225.5 118.5 222.4 118.4 227 120.8C231.1 123 241.1 134.5 244.6 141C247.6 146.6 246.6 142.2 243.5 136C242.2 133.5 240.9 130.1 240.6 128.5C240 125.6 240.2 125.7 244.6 130.5L249.2 135.5L246.9 131.1C243.8 125.4 233.9 114.6 234.7 117.8Z" fill="white"/>
<path d="M187 121.5C187.7 122.3 188.7 123 189.2 123C189.8 123 189.7 122.3 189 121.5C188.3 120.7 187.3 120 186.8 120C186.2 120 186.3 120.7 187 121.5Z" fill="white"/>
<path d="M186.5 127.9C188.8 131 192 134.6 193.5 136C197.7 139.8 201 147.6 201 153.7C201 159.6 200.3 160 195.9 156.9C192.5 154.5 192.2 153 195 151.2C197.8 149.5 197.5 145.1 194.4 140.4C192.9 138.3 191.6 136.3 191.4 136.1C191.2 135.9 190.4 136.3 189.5 137C188.3 138 186.8 137.9 181.5 136.6C174 134.7 169 134.6 163.5 136.1C157.1 137.9 154.3 140.6 150.3 148.7C146.6 156.2 146.5 156.5 146.2 170C145.8 183.1 147.6 201.7 150 209.6C151.3 214 151.1 211.5 149.5 201.5C147.2 187.9 147.5 170.8 150.1 163.2C154.7 149.6 168.9 144.3 182.3 151.1C184.6 152.3 189.7 156.4 193.6 160.2C202.4 168.7 204 168.6 204 159.6C204 152.2 201.6 145.4 195 134.5C189.7 125.7 186.9 122.7 184 122.5C182.5 122.4 183 123.4 186.5 127.9Z" fill="white"/>
<path d="M259.2 125.7C258.6 126.6 258.6 128.6 259.1 130.3C260.2 134.3 265 142.1 265.9 141.6C267.1 140.8 265.4 130.8 263.6 127.2C261.8 123.6 260.5 123.2 259.2 125.7Z" fill="white"/>
<path d="M192.9 127.7C194.1 130.1 196 131.6 196 130.2C196 129.7 195 128.5 193.9 127.4C191.7 125.5 191.7 125.5 192.9 127.7Z" fill="white"/>
<path d="M199.4 133.6C202.7 139.4 202.6 140.3 199.4 136.5C197.5 134.3 197.9 135.5 201 141.3C203.4 145.6 206.3 152.4 207.6 156.3C208.9 160.3 209.9 162.4 210 161.1C210 159.1 213.5 152 214.5 152C214.7 152 215.6 152.7 216.4 153.6C217.7 154.9 218 158 218 171.6C218 187.7 218.1 188.3 220.6 192.6C222.9 196.5 223.1 197.5 222.1 199.7C221.4 201.1 221.3 202.7 221.8 203.4C223.2 205.2 227.3 221.1 226.6 221.8C226.4 222 225.3 220.6 224.1 218.7C218.3 209.2 209.2 201 202.2 198.9C199.1 198 198.1 196.9 196 192.7C194.5 189.4 190.6 184.6 185.6 179.7C177.1 171.4 175.2 170 172.5 170C171 170 171 170.1 172.5 171.6C173.6 172.8 173.8 173.6 173.1 174.3C171.2 176.2 171.9 183.3 174.5 188C179 196.1 183 205.2 183 207C183 209.3 178.5 213 174.8 213.7C171.6 214.3 169 218.7 169 223.4C169 228.6 170.3 229.5 177.2 229.6C180.7 229.7 183.9 229.8 184.4 229.9C184.8 230 183.8 231.6 182.1 233.5C180.4 235.5 179 237.6 179 238.2C179 238.8 179.3 239 179.7 238.7C180 238.3 180.9 238.5 181.6 239.1C182.6 239.9 182.7 242.7 182.3 250.3C181.7 260.2 181.8 260.8 184.8 267.6C190.4 280.4 192.6 295.3 189.8 301.5C188.4 304.6 186.3 304.2 180.5 299.5C168.1 289.6 167 288.9 163.1 289.6C157.7 290.6 153.7 293.4 149 299.5C146.7 302.5 144.6 305 144.3 305C144.1 305 144.2 304.5 144.5 304C144.8 303.4 144.6 303 144 303C141.7 303 137 312.3 136.9 316.9C136.8 320.7 136.7 321.1 136 319C135.6 317.6 135.4 313.3 135.6 309.5C136 303.7 135.9 302.9 134.9 305C134.2 306.7 134.1 310 134.6 315C135 319.1 135.5 325.5 135.5 329.2C135.7 335.5 136 336.2 139.8 340.8C144.9 346.9 146.8 348.5 147.8 347.5C148.2 347.1 146.1 344.6 143.1 341.9C140.2 339.1 138 336.7 138.2 336.5C139 335.7 150.4 345.5 152 348.3C153.9 351.7 152.8 353.7 147.5 356.5C143 358.9 142.5 360.2 141.7 370.5C141.4 375.7 141.5 377.6 142.1 376C142.8 374.1 142.9 374.5 142.5 378C142.2 381.4 142.3 382 143.1 380.5C143.8 379 143.9 379.5 143.5 382.5C143.1 385.9 143.2 386.1 144.1 384.1C144.8 382.4 144.8 380.1 144 376.8C141.7 366 143.4 360.5 149.7 357.6C158 353.9 157 349.2 146.1 340.6C138 334.1 137 332.6 137 327.2C137 318.7 138.9 312.7 142.8 308.5C144.9 306.3 148.3 302.4 150.4 299.7C154.8 294.2 157.3 292.6 161.7 292.8C167 293 172.6 296.6 181.6 305.5C186.2 310.2 190.7 314 191.4 314C193.4 314 194 311.7 194 303.5C194 293.8 191.6 281.9 187.4 270.3C185.5 264.8 184 258.9 184 256.3C184 250.1 186.4 239.2 190.2 228C193 220.1 194.1 218.2 196.9 216.3C201.8 213 207.6 213.2 212.6 216.8C217.3 220.3 222.8 226.3 224.3 229.9C224.9 231.3 226.6 234.3 228 236.5C229.5 238.7 231 241.4 231.4 242.5C232.1 244.5 232.2 244.5 233.2 242.6C235.8 237.9 231.4 209.8 225.6 194.6C222.1 185.5 221.9 170.9 225.1 162.9C226.9 158.3 227 157.1 225.9 152.8C225.3 150.1 223.9 147 222.8 146C220.8 144.2 220.7 144.2 216.9 146.7C213.1 149.2 212.9 149.2 211 147.5C210 146.6 206.6 142 203.5 137.4C197.4 128.2 195.3 126.3 199.4 133.6ZM206.9 144.6C209.3 147.8 211 151.1 210.8 152.2C210.6 153.6 209.4 152.3 206.5 147.4C202.1 139.9 201.6 139 202.3 139C202.5 139 204.6 141.5 206.9 144.6ZM138 335.1C138 335.7 137.6 335.8 137 335.5C136.5 335.2 136 334.4 136 333.9C136 333.3 136.5 333.2 137 333.5C137.6 333.8 138 334.6 138 335.1Z" fill="white"/>
<path d="M214 131C214 131.5 214.5 132 215 132C215.6 132 216 132.6 216 133.3C216 134.1 217.5 134.5 220.5 134.4C225.3 134.2 230 136.8 230 139.6C230 140.4 231.3 143.4 232.9 146.3C236.5 152.7 239.6 164.7 240.6 175.7C240.9 180.3 241.6 183.7 242 183.5C243 182.9 244 186.5 244 190.5C244 192.8 243.7 193.2 243 192C242.1 190.7 242 190.7 242 192C242 194.6 245.6 205.1 246.4 204.8C247.4 204.4 249.6 208.4 251.6 214.5C253.9 221.3 257.5 228.3 259.6 230.1C261.6 231.7 261.5 231.4 257.3 222.9C255.5 219.4 252.1 209.8 249.6 201.7C245.6 188.9 245 185.7 245 178.1C245 156.4 238.4 140.7 226.1 132.8C221.6 130 214 128.9 214 131Z" fill="white"/>
<path d="M214.2 137.1C212.9 137.6 211.3 137.7 210.8 137.3C210.1 137 210 137.2 210.4 137.9C210.9 138.6 212 138.8 213.2 138.4C215 137.9 215.2 138.1 214.6 140.4C213.8 143.7 215 143.7 218.8 140.5C220.5 139.1 222.2 138 222.7 138C223.2 138 224.7 139.1 226 140.5C228 142.7 228.1 143 226.6 143C225 143 225 143.2 226.8 146.2C232.2 155.1 233.9 172.4 230.1 179.9C228.9 182.1 227.9 185 227.8 186.3C227.6 189.1 229.9 195 231.2 195C231.8 195 232 196.2 231.7 197.7C231.4 199.2 232.1 203.4 233.2 207C236.2 217.1 236 216.9 237.8 213C238.8 211.1 239.9 209.6 240.5 209.7C241 209.8 242.5 213.6 243.8 218.2C245.7 225.1 246 228.1 245.7 236.5C245.4 243.6 245.5 245.5 246.1 243C247.9 236.1 247.3 226.8 244.5 216.5C243 211 241.4 203.8 240.9 200.5C240.4 197.2 239.6 192.9 239 191C238.5 189.1 238.3 184.8 238.6 181.5C239.3 174.3 237 159.9 233.8 151.4C230.8 143.7 223.6 136 219.4 136.1C217.8 136.1 215.4 136.5 214.2 137.1Z" fill="white"/>
<path d="M250.4 139.5C253.1 146.7 254.3 154.3 254.9 167L255.5 181.5L256.9 168.5L258.3 155.5L254.6 147C251.1 139.2 248.7 134.8 250.4 139.5Z" fill="white"/>
<path d="M283.4 146.2C282.4 148 280.9 150.6 279.9 152C278.9 153.4 277.8 156.5 277.4 159L276.8 163.5L278.7 160.5C279.8 158.8 281.4 156.9 282.3 156.2C283.8 154.9 285.1 151.6 286.4 145.7C287.3 142 285.4 142.3 283.4 146.2Z" fill="white"/>
<path d="M247.1 147.6C247.1 148.7 247.4 149 247.7 148.2C248 147.5 247.9 146.6 247.6 146.3C247.3 145.9 247 146.5 247.1 147.6Z" fill="white"/>
<path d="M248.1 151.6C248.1 152.7 248.4 153 248.7 152.2C249 151.5 248.9 150.6 248.6 150.3C248.3 149.9 248 150.5 248.1 151.6Z" fill="white"/>
<path d="M266 152.4C266 153.2 266.7 156.7 267.4 160.2C268.6 165.2 271.8 186.7 272.1 191.5C272.1 192 272.6 191.4 273.1 190.1C274.1 187.5 272.9 171.2 270.9 162C269.3 154.6 266 148.1 266 152.4Z" fill="white"/>
<path d="M249.2 157C249.2 158.4 249.4 158.9 249.7 158.2C249.9 157.6 249.9 156.4 249.7 155.7C249.4 155.1 249.2 155.6 249.2 157Z" fill="white"/>
<path d="M168.6 163C164.9 164.2 159.6 169.3 156.3 175C154 179 153.6 180.8 153.3 190.5C153 200.7 153.1 201.3 154.4 199C155.3 197.6 157.4 192.1 159.1 186.7C161.7 178.3 162.9 176 167.3 171C170.2 167.8 173.3 165.1 174.3 165.1C176.7 165 175.9 162.6 173.4 162.3C172.4 162.2 170.2 162.5 168.6 163Z" fill="white"/>
<path d="M187 165.7C187.6 167 190.3 170.9 193 174.5C195.7 178 199.1 183 200.6 185.5C203.2 190.1 208.9 194.2 214.2 195.4C217.5 196.1 218.2 194 216.3 189.3C215.6 187.5 214.9 182.1 214.9 177.3L214.7 168.5L213.6 179C213 184.8 212.2 189.4 211.7 189.4C206.3 188.5 205.1 187.7 202.7 184.1C201.3 181.9 198.1 177.9 195.8 175.2C193.4 172.5 190.2 168.7 188.7 166.9C187 164.8 186.4 164.4 187 165.7Z" fill="white"/>
<path d="M277.1 183.1C277.1 187.2 277.5 192.3 278 194.5C278.6 197.2 278.7 194.9 278.3 187.5C277.7 174.7 277 172.3 277.1 183.1Z" fill="white"/>
<path d="M275.2 187.3C275.1 192.7 274.5 198 274 199C272.6 201.7 274.4 209.5 279.1 221.2C281.2 226.5 283 231.5 283 232.3C283 233.1 284.2 236.4 285.6 239.6C289.7 248.9 292.9 262.4 294.2 276.4C295 284 295.6 287.8 295.8 285.5C296.4 279 294.1 260.6 291.5 250.7C288 237.4 283.5 224.3 281.8 222.2C277.1 217 276.5 214.1 275.9 195.5C275.6 183.5 275.3 180.7 275.2 187.3Z" fill="white"/>
<path d="M296.6 184.5C296.8 187.2 297.5 194.4 298 200.5C298.4 206.5 299.8 219.4 300.9 229C302 238.6 303 250.4 303 255.2C303 265.1 304.5 266.9 305.6 258.4C306.4 251.4 305.7 241.3 303.1 223.5C301.9 215.8 300.5 204.8 300 199C299.5 193.2 298.4 186.5 297.6 184L296 179.5L296.6 184.5Z" fill="white"/>
<path d="M254.2 188C254.2 189.9 254.4 190.7 254.7 189.7C254.9 188.8 254.9 187.2 254.7 186.2C254.4 185.3 254.2 186.1 254.2 188Z" fill="white"/>
<path d="M301.2 199.5C301.2 201.1 301.4 201.7 301.7 200.7C301.9 199.8 301.9 198.4 301.7 197.7C301.4 197.1 301.2 197.8 301.2 199.5Z" fill="white"/>
<path d="M159.1 201.8C158.5 202.9 157.6 207 157 210.9C156.1 217.5 156.2 218.6 159 227.4C160.7 232.5 162 237.5 162 238.4C162 239.4 162.4 239.9 162.9 239.6C164.4 238.7 165.1 245.1 164.4 252.8C163.8 259.2 163.9 260.2 165.6 261.4C166.6 262.2 167.8 262.6 168.2 262.4C170.1 261.2 168.9 246.5 166.1 235.2C162.9 222.2 162.3 218.9 161.4 208C161.1 203.9 160.7 200.4 160.5 200.2C160.3 200 159.7 200.7 159.1 201.8Z" fill="white"/>
<path d="M268.8 202.5C268 206.5 269.7 213.6 272.6 218.5C276.5 225.2 278.9 225.7 275.5 219.1C274.7 217.5 273.3 212.9 272.4 208.9C270.6 200.6 269.5 198.7 268.8 202.5Z" fill="white"/>
<path d="M146.1 203.6C146.1 204.7 146.4 205 146.7 204.2C147 203.5 146.9 202.6 146.6 202.3C146.3 201.9 146 202.5 146.1 203.6Z" fill="white"/>
<path d="M257.1 205.5C257.2 207.4 258.9 210.6 258.9 209C258.9 208.2 258.5 206.8 258 206C257.5 205.2 257.1 204.9 257.1 205.5Z" fill="white"/>
<path d="M278.8 206.2C278.5 206.9 278.6 208.6 279 210L279.6 212.5L280.9 210.2C282.2 207.8 281.8 205 280.1 205C279.6 205 279 205.6 278.8 206.2Z" fill="white"/>
<path d="M302.2 207.5C302.2 209.1 302.4 209.7 302.7 208.7C302.9 207.8 302.9 206.4 302.7 205.7C302.4 205.1 302.2 205.8 302.2 207.5Z" fill="white"/>
<path d="M147.1 208.6C147.1 209.7 147.4 210 147.7 209.2C148 208.5 147.9 207.6 147.6 207.3C147.3 206.9 147 207.5 147.1 208.6Z" fill="white"/>
<path d="M259.5 213.5C260.3 217.8 265.1 227.4 265.9 226.2C266.8 224.7 275.7 237.1 279.1 244.5C280.7 248.1 282.9 254 283.9 257.7C285 261.4 285.9 263.8 285.9 262.9C286 260.1 282 248.1 278.4 240.6C274.2 231.8 266.8 221.7 265.8 223.3C265.2 224.3 264.3 222.6 259.6 212C259.3 211.2 259.2 211.8 259.5 213.5Z" fill="white"/>
<path d="M283.9 216.2C284.4 217.5 286.3 224.2 288.1 231.3C289.9 238.3 291.5 243.8 291.7 243.6C292.4 242.9 284.8 214 283.9 214C283.4 214 283.4 215 283.9 216.2Z" fill="white"/>
<path d="M266.7 230.5C267.1 231.6 268.9 234.9 270.7 237.7C275 244.5 279.6 256 281.4 264.6C282.2 268.4 283.3 272.6 283.9 274C284.8 276.1 284.9 275.9 284.4 272.5C283.1 263.1 279.6 251.9 275.4 243.5C271.2 235.1 264.9 225.8 266.7 230.5Z" fill="white"/>
<path d="M210.5 237.2C211.2 240.1 212.7 245.2 213.8 248.5C214.9 251.8 216.2 256.3 216.6 258.5L217.3 262.5L215.1 260.6C214 259.5 212 258.2 210.8 257.6C209.3 256.8 208.3 254.8 207.4 251C206.6 248 205 242.7 203.7 239.2L201.3 232.8L198.2 236.5C194.6 240.5 194.6 240.6 196.3 247.2C197.2 250.5 197.3 254.4 196.7 260.7C196 267.6 196.2 270.8 197.4 275.5L198.9 281.5L198.3 275.8C197.2 263.8 202 259.3 210.1 265.1C217.2 270.1 220.8 283.8 219 298.1C217.7 308.3 218.2 311 221.4 311C223.9 311 231.4 305.1 233.2 301.7C233.9 300.4 232.5 301.2 229.5 303.8C224 308.7 222.9 308.2 223.6 301C225.8 277 225.1 263 220.9 247C219.4 241.2 218.2 238.7 215.3 235.8C210.1 230.4 209 230.8 210.5 237.2Z" fill="white"/>
<path d="M251.2 237.6C248.8 242.3 246.9 250.6 245 263.7C241.2 291.1 237.1 302 226.9 311.4C223.7 314.4 220.2 317.1 219.1 317.5C218.1 317.8 216.9 318.8 216.6 319.6C215.9 321.5 221.2 318.5 228 313.1C233 309.2 232.2 310.4 223.5 320.1C220.8 323.1 217.2 328 215.5 330.8C212.3 336.4 211.4 337 210.7 334.2C210.4 333.3 210.2 337.1 210.1 342.7C210 352.4 211.1 355.9 212.5 350.7C212.8 349.5 214.5 344.8 216.2 340.3C219.1 332.5 219.4 332.1 221.7 332.7C224.8 333.4 226.1 331.6 225.3 327.8C224.8 325.5 225.8 323.3 230.3 316.7C238.3 304.8 242.9 293.3 249 270C250.3 265.3 252.4 259.8 253.7 257.6C256.1 254 256.4 253.8 260.1 254.4C264.7 255.1 265 254.2 261.6 248.7C260.2 246.4 259.4 244 259.8 242.8C260.2 241.3 260 240.9 259 241.5C258.2 242 256.8 241.1 255 239C252.4 236 252.1 235.9 251.2 237.6Z" fill="white"/>
<path d="M172.6 241.6C170.5 243.6 170.5 251.6 172.5 253.6C173.3 254.5 174 256.2 174 257.4C174 258.7 175.1 262.2 176.5 265.1C177.9 268.1 178.8 269.6 178.5 268.5C176 260.2 175.7 257.9 176.6 250.1C177.2 245.6 177.3 241.6 177 241.2C176 239.9 174.1 240 172.6 241.6Z" fill="white"/>
<path d="M292.1 246.6C292.1 247.7 292.4 248 292.7 247.2C293 246.5 292.9 245.6 292.6 245.3C292.3 244.9 292 245.5 292.1 246.6Z" fill="white"/>
<path d="M244.2 250C244.2 251.9 244.4 252.7 244.7 251.7C244.9 250.8 244.9 249.2 244.7 248.2C244.4 247.3 244.2 248.1 244.2 250Z" fill="white"/>
<path d="M273.6 250.5C277.3 263.1 277.7 273 274.3 271.1C273.2 270.5 272.2 270.7 271.2 271.6C269.1 273.7 268.2 273.4 263.2 268.5C260.7 266 258.1 264 257.5 264C254.2 264 251.3 269.5 245 288C241.2 299.1 236.1 310.5 232.1 317C230.5 319.5 228.9 322.6 228.6 324L227.9 326.5L230 323.8C231.1 322.4 232.9 320.1 234 318.8L236 316.5L235 319.3C233.2 324.4 234 324.6 236 319.6C237.1 316.9 237.6 314.2 237.3 313.7C237 313.1 237.2 313 237.8 313.4C238.5 313.8 239 313.8 239.1 313.3C239.5 308.8 240.3 306 243.9 296.7C252.1 275 254.4 273.1 265.3 278.6C268.2 280.1 272.6 282.8 275.1 284.6C281.2 289 284 289.1 284 284.9C284 283.2 283.6 281.1 283 280.1C282.5 279.1 280.7 273 279 266.6C277.3 260.2 275.3 253.5 274.5 251.7C273.6 249.9 273.2 249.4 273.6 250.5Z" fill="white"/>
<path d="M293.2 250C293.1 250.8 293.7 254.2 294.4 257.5C295.2 260.8 295.8 262.4 295.8 261C295.8 258.2 293.3 247.7 293.2 250Z" fill="white"/>
<path d="M243.3 259C243.3 261.5 243.5 262.5 243.7 261.2C243.9 260 243.9 258 243.7 256.7C243.5 255.5 243.3 256.5 243.3 259Z" fill="white"/>
<path d="M286.2 268C286.2 269.9 286.4 270.7 286.7 269.7C286.9 268.8 286.9 267.2 286.7 266.2C286.4 265.3 286.2 266.1 286.2 268Z" fill="white"/>
<path d="M291.2 267.5C291.2 269.1 291.4 269.7 291.7 268.7C291.9 267.8 291.9 266.4 291.7 265.7C291.4 265.1 291.2 265.8 291.2 267.5Z" fill="white"/>
<path d="M242.2 269C242.2 270.4 242.4 270.9 242.7 270.2C242.9 269.6 242.9 268.4 242.7 267.7C242.4 267.1 242.2 267.6 242.2 269Z" fill="white"/>
<path d="M183 274.8C183 276.6 182.3 279.6 181.6 281.5C179.9 285.5 177.7 285.9 172.9 283.4C171.2 282.6 168.1 282 165.7 282.2L161.6 282.5L169.5 287.2C179.7 293.1 182.5 294.4 184.3 293.7C186.5 292.9 187.3 286.5 185.9 280.2C184.4 272.8 183.1 270.3 183 274.8Z" fill="white"/>
<path d="M287.2 274C287.2 275.4 287.4 275.9 287.7 275.2C287.9 274.6 287.9 273.4 287.7 272.7C287.4 272.1 287.2 272.6 287.2 274Z" fill="white"/>
<path d="M292.3 275.5C292.3 277.7 292.5 278.5 292.7 277.2C292.9 276 292.9 274.2 292.7 273.2C292.4 272.3 292.2 273.3 292.3 275.5Z" fill="white"/>
<path d="M285.1 278.6C285.1 279.7 285.4 280 285.7 279.2C286 278.5 285.9 277.6 285.6 277.3C285.3 276.9 285 277.5 285.1 278.6Z" fill="white"/>
<path d="M290.1 278.6C290.1 279.7 290.4 280 290.7 279.2C291 278.5 290.9 277.6 290.6 277.3C290.3 276.9 290 277.5 290.1 278.6Z" fill="white"/>
<path d="M303.9 284.7C303.8 288.7 303.7 292.4 303.6 293C303.5 293.5 303.9 294.1 304.3 294.2C305.4 294.6 305.8 283.3 304.9 280C304.4 278.3 304.1 279.9 303.9 284.7Z" fill="white"/>
<path d="M286.2 282.5C286.2 283.6 286.6 285.6 287 287L287.8 289.5V287C287.8 285.6 287.5 283.6 287 282.5L286.1 280.5L286.2 282.5Z" fill="white"/>
<path d="M289.1 282.6C289.1 283.7 289.4 284 289.7 283.2C290 282.5 289.9 281.6 289.6 281.3C289.3 280.9 289 281.5 289.1 282.6Z" fill="white"/>
<path d="M291.1 282.6C291.1 283.7 291.4 284 291.7 283.2C292 282.5 291.9 281.6 291.6 281.3C291.3 280.9 291 281.5 291.1 282.6Z" fill="white"/>
<path d="M199.2 285C199.2 286.4 199.4 286.9 199.7 286.2C199.9 285.6 199.9 284.4 199.7 283.7C199.4 283.1 199.2 283.6 199.2 285Z" fill="white"/>
<path d="M252.4 285.2L250.5 287.5L252.8 285.6C254.9 283.8 255.5 283 254.7 283C254.5 283 253.5 284 252.4 285.2Z" fill="white"/>
<path d="M268 285.4C268 285.6 268.8 286.4 269.8 287.1C271.3 288.4 271.4 288.3 270.1 286.7C268.8 285.1 268 284.6 268 285.4Z" fill="white"/>
<path d="M147.3 291.9C143.8 295.2 141 298 141 298.3C141 298.6 141.9 299 142.9 299.3C144.3 299.6 146.4 298 151 292.9C158.8 284.1 156.3 283.5 147.3 291.9Z" fill="white"/>
<path d="M290.1 287.6C290.1 288.7 290.4 289 290.7 288.2C291 287.5 290.9 286.6 290.6 286.3C290.3 285.9 290 286.5 290.1 287.6Z" fill="white"/>
<path d="M292.1 287.6C292.1 288.7 292.4 289 292.7 288.2C293 287.5 292.9 286.6 292.6 286.3C292.3 285.9 292 286.5 292.1 287.6Z" fill="white"/>
<path d="M195.1 288.6C195.1 289.7 195.4 290 195.7 289.2C196 288.5 195.9 287.6 195.6 287.3C195.3 286.9 195 287.5 195.1 288.6Z" fill="white"/>
<path d="M200.2 289.5C200.2 290.6 200.6 292.6 201 294C201.6 296 201.8 296.1 201.8 294.5C201.8 293.4 201.4 291.4 201 290C200.4 288 200.2 287.9 200.2 289.5Z" fill="white"/>
<path d="M248.5 291.1C247.6 292.8 247 294.4 247.2 294.6C247.5 294.8 248.4 293.4 249.3 291.5C251.4 287.2 250.6 286.8 248.5 291.1Z" fill="white"/>
<path d="M204 289.1C204 290.5 208.1 309.4 208.5 309.8C210.1 311.5 207 293.6 205.1 290.3C204.5 289.3 204 288.8 204 289.1Z" fill="white"/>
<path d="M196 291.6C196 292.1 196.7 296.8 197.5 302C199.2 313.3 199.4 330.4 197.9 336.6C197.3 339 196.5 341 196.2 341C195.3 341 193 337.6 188.3 329.1C185.8 324.5 180.4 317 176.3 312.6C169.8 305.4 169.2 304.4 171 304C174.1 303.3 173.4 301.9 168.7 298.7C162.3 294.4 160.3 295.2 155.7 303.5C151.8 310.8 147.5 316 145.5 316C143.1 316 140 320.7 139.5 325.1C138.8 330.4 139.2 331.1 145 333.9L149.5 336.1L146.4 333.3C144.6 331.8 143 329.8 142.7 329C141.7 325.6 146.8 317.4 155.9 307.7C160.8 302.6 163.4 302.8 169.1 308.7C175.8 315.7 177.7 318.9 183.1 331.7C190.3 348.9 202.4 368 204.6 365.7C204.9 365.4 205.3 353.4 205.5 338.9L205.8 312.5L205 336.3C204.6 349.4 203.9 360.4 203.6 360.7C201.9 362.4 201.3 354.4 201.7 337C202.2 318.6 202.1 316.8 199.5 304.5C197.1 293 196 288.7 196 291.6Z" fill="white"/>
<path d="M288.2 294.1C288 297.8 286 299.7 283.7 298.4C283 298 283.6 298.9 285 300.2C287.5 302.7 287.5 302.7 288.3 300.6C288.7 299.5 288.9 296.8 288.7 294.5L288.3 290.5L288.2 294.1Z" fill="white"/>
<path d="M291.2 293.5C291.2 295.1 291.4 295.7 291.7 294.7C291.9 293.8 291.9 292.4 291.7 291.7C291.4 291.1 291.2 291.8 291.2 293.5Z" fill="white"/>
<path d="M275 292.4C275 292.6 275.8 293.4 276.8 294.1C278.3 295.4 278.4 295.3 277.1 293.7C275.8 292.1 275 291.6 275 292.4Z" fill="white"/>
<path d="M280 294.4C280 294.6 280.8 295.4 281.8 296.1C283.3 297.4 283.4 297.3 282.1 295.7C280.8 294.1 280 293.6 280 294.4Z" fill="white"/>
<path d="M244.8 300.1C243.9 302.3 243.4 304.8 243.7 305.7C244.1 306.6 243.9 307.1 243.4 306.7C242.5 306.2 242.1 307.7 241.9 312.7C241.8 314 241.4 314.7 240.9 314.4C240.4 314.1 240.3 314.7 240.7 315.6C241.1 316.8 241 317.1 240.2 316.6C239.4 316.1 239.2 316.4 239.6 317.5C240.4 319.4 240.3 319.4 242.5 315.1C243.4 313.3 243.7 312.1 243.1 312.4C241.3 313.6 241.8 312 245.7 305.1C247.7 301.5 248.7 299.1 247.8 299.8C246.5 300.8 246.3 300.7 246.8 298.5C247.4 294.9 246.7 295.4 244.8 300.1Z" fill="white"/>
<path d="M279 298C279.6 299.1 280.3 300 280.6 300C280.8 300 280.6 299.1 280 298C279.4 296.9 278.7 296 278.4 296C278.2 296 278.4 296.9 279 298Z" fill="white"/>
<path d="M202.2 299C202.2 300.4 202.6 302.6 203 304C203.6 306 203.8 306.1 203.8 304.5C203.8 303.4 203.4 301.1 203 299.5C202.3 296.8 202.2 296.8 202.2 299Z" fill="white"/>
<path d="M294.2 304.4C294.1 308.8 294.4 312 294.8 311.4C295.3 310.9 295.3 307.3 295 303.5L294.3 296.5L294.2 304.4Z" fill="white"/>
<path d="M300 301.9C299.2 302.5 298.3 302.7 297.9 302.4C297.5 302.2 297.4 302.9 297.7 304C298 305.1 297.7 306 297.1 306C296.5 306 296 306.7 296 307.5C296 308.4 296.6 308.7 297.5 308.4C298.3 308 299 306.7 299 305.3C299 304 299.4 303.1 299.9 303.4C300.4 303.7 301 303.3 301.4 302.5C302 300.8 302 300.7 300 301.9Z" fill="white"/>
<path d="M282.6 304.9C283.8 309.3 287.8 316.1 288.6 314.9C288.9 314.3 288.8 313.5 288.3 313.1C287.7 312.8 286.1 310.2 284.6 307.5C283.1 304.7 282.2 303.6 282.6 304.9Z" fill="white"/>
<path d="M204.2 309C204.2 310.4 204.4 310.9 204.7 310.2C204.9 309.6 204.9 308.4 204.7 307.7C204.4 307.1 204.2 307.6 204.2 309Z" fill="white"/>
<path d="M252.1 312C250.5 313.7 248.1 316.4 246.9 318.1L244.7 321.2L249.4 317.6C254.7 313.6 257 313.2 259.6 315.7C261.3 317.4 261.3 317.3 260.6 314.6C259.9 311.9 257.5 309.1 255.8 309C255.5 309 253.8 310.4 252.1 312Z" fill="white"/>
<path d="M294.1 318.6C294.1 319.7 294.4 320 294.7 319.2C295 318.5 294.9 317.6 294.6 317.3C294.3 316.9 294 317.5 294.1 318.6Z" fill="white"/>
<path d="M150.4 321.4C148.5 323.3 147 325.8 147 326.9C147 330.9 153.8 335.8 155.4 333.1C156.4 331.5 160.3 333.2 166 337.5C180.2 348.4 190.8 362.7 196 378C197.7 383 198.1 386 197.7 390.8C197.1 399 196 400 192.4 395.9C181.6 384 175.3 379.1 164.7 374.8C153.3 370.2 150 371.3 152 379.2C155.6 393 156.8 396.8 158.5 398.8L160.5 401.1L161 398.3C161.7 394.3 164.7 394.3 173.1 398.1C183.7 403 189 410.5 189 420.7C189 425.3 192.5 430 195.8 430C200.9 430 210.3 421.9 212 416C212.5 414.2 213.4 404.1 214 393.6C215.6 365.7 219 353.5 227.5 346.5C232.1 342.8 233 340.8 231.9 337C231.4 335.3 231.2 335.1 231.1 336.3C231 337.3 230.6 337.8 230 337.5C229.5 337.2 229 337.6 229 338.4C229 339.3 227.5 340.6 225.6 341.4C223.7 342.2 221.5 344.1 220.7 345.7C218.4 350.2 214.3 363.9 213 371.7C212.2 376.5 211.4 378.7 210.7 378.4C207.5 377.2 206.4 396.1 209.4 399.9C210.5 401.4 210.4 406.6 208.9 412.1C208.1 415.5 203.6 419.9 202.3 418.6C202 418.4 202.3 415.8 202.9 413C204.4 406 204.2 392.8 202.5 384.8C200.8 376.7 191.8 358.6 185.9 351.5C183.6 348.7 178 342.5 173.3 337.6C168.7 332.7 164.2 327.3 163.3 325.6C161.1 321.1 157.9 318 155.7 318C154.7 318 152.3 319.5 150.4 321.4ZM171 382.5C174.7 384.8 181.2 391.1 180.6 391.7C180.4 391.9 176.4 390.3 171.8 388.2C166 385.5 163.1 383.6 162.8 382.2C162.5 381.1 162.4 379.9 162.7 379.7C163.4 378.9 167.3 380.2 171 382.5Z" fill="white"/>
<path d="M261.1 319.6C261.1 320.7 261.4 321 261.7 320.2C262 319.5 261.9 318.6 261.6 318.3C261.3 317.9 261 318.5 261.1 319.6Z" fill="white"/>
<path d="M249.9 321.5C245.3 326.2 244 328 244 329.5C244 331.3 247 335.7 251.5 340.5C254.6 343.8 262.1 356.7 263.4 360.7C263.8 362 264.6 363 265.2 363C266.7 363 265.6 353.8 262.5 340.5C259.2 326.7 257.2 321.2 254.9 320C252.5 318.7 252.6 318.7 249.9 321.5Z" fill="white"/>
<path d="M237.6 323.5C237.3 324.4 237 325.7 237.1 326.3C237.1 327 237.6 326.4 238.1 325.1C238.6 323.8 238.9 322.5 238.6 322.3C238.4 322.1 238 322.6 237.6 323.5Z" fill="white"/>
<path d="M262 322.6C262.1 326 272.8 382.7 274.1 386.7C274.7 388.5 275.5 390 275.8 390C276.2 389.9 278.3 388 280.5 385.8C282.7 383.5 283.3 382.6 281.9 383.8C276.7 388.3 276 387.1 272.5 366.7C269.2 347.5 261.8 316.6 262 322.6Z" fill="white"/>
<path d="M231.1 326.5C231.1 328.6 231.7 332.4 232.6 334.7C235 340.8 233.4 345.7 227.6 350.5C222.6 354.6 218.7 362.4 217.1 371.5C216.5 374.8 215.6 386.6 215.1 397.7C214.4 411.7 213.7 418.8 212.7 420.7C211.9 422.2 208.5 426.1 205.2 429.3C200.2 434 198.5 435 195.6 435C190.4 435 187.9 430.9 187 420.9C186.1 411.2 183 405.7 176.7 403C171 400.6 166.7 399.6 167.5 401C167.8 401.5 168.6 402 169.1 402C169.7 402 172.3 402.9 174.9 404C178.7 405.7 180.1 407 181.8 410.6C183 413 184 416.8 184 418.9C184 422.3 183.8 422.7 182 422.3C180.8 422 179 419.9 177.8 417.6C176.7 415.4 174.9 412.3 173.9 410.8C171.6 407.6 171.6 407.3 173.8 406.7C175.1 406.3 174.9 406.2 173.3 406.1C170.7 406 170.4 407.6 172.5 410.4C174.2 412.7 174.5 414.4 173 413.5C171.4 412.5 171.7 413.3 176.6 422.1C179.7 428 180.9 429.5 180.5 427.3C179.9 424.2 180 424 182.4 424.2C184 424.4 185 425 185 426C185 428.5 189.7 437.8 192.3 440.4C194 442.1 194.9 444.3 195.3 448.1C195.6 451.1 196.1 454.4 196.5 455.5C197 456.9 196.5 456.6 194.6 454.5L192 451.5L194.1 456.5C197.1 463.8 200 474.9 200 479.2C200 484.3 197.9 485.3 192.2 482.9C184.9 479.7 183 480.5 183 487C183 491.2 186.1 500 187.6 500C188.6 500 188.8 498.7 188.3 495C187.8 490.3 187.9 490 190 490C191.2 490 194.8 491.6 198 493.6C204.2 497.4 205.5 497.4 207.1 493.3C208.5 489.7 206.9 482.3 201 464.3C195.1 446.4 194.9 444.7 198.8 443.1C201.5 442 215.3 427.7 217.7 423.6C218.4 422.4 218.9 422 219 422.6C219 423.2 217.2 426.5 215 429.9C212.8 433.2 210.1 437.9 208.9 440.3C207.7 442.6 205.7 445.8 204.4 447.3C201 451.3 201.3 456.5 205.5 468.5C210.3 482 212 489 212.1 495C212.2 497.7 212.7 500 213.1 500C214.7 500 214 492.6 211.4 483C205.3 460.2 205 457.9 207.4 453.2C208.1 451.7 209.3 448.2 210 445.3C210.6 442.4 213 437 215.3 433.3C217.5 429.6 220.2 424.3 221.2 421.6C222.3 418.9 224.4 414.8 226.1 412.4C227.7 410.1 229 407.4 229 406.5C229 405.7 229.7 404.7 230.5 404.4C232.3 403.7 237.4 405.6 239 407.5C240.6 409.4 245.1 432.5 244.4 434.7C242.9 439.1 239.7 445 238.9 445C238.4 445 238 443.8 238 442.4C238 441 237.4 437.8 236.8 435.2L235.5 430.5L234.9 436C232.6 454.8 232.4 453.5 239.1 473C241.3 479.4 249.7 493.6 250.7 492.6C251.2 492.2 249.4 488.3 243 476C239.7 469.8 238 463 238 456.3C238 452.3 238.5 451.3 242 447.7C248.1 441.6 250.4 435.5 249.7 427C249.1 419.4 248.3 417.5 243.5 411.5C241.7 409.3 239.1 405.2 237.7 402.5C236.3 399.7 233 394.7 230.2 391.4C224.8 384.6 223.5 381.4 224.9 377.7C226.2 374.3 227.7 373.6 232.6 373.9C239.9 374.3 241 371.2 239 355.5L238.3 349.5L238 356.5C237.6 368 237.4 368.4 230.6 369C224.1 369.6 222.5 371 221.4 376.9C220.3 382.6 222.5 393.6 225.4 397.5C228.6 401.7 228.6 402.3 225.3 406.6C223.9 408.5 221.9 412.4 220.9 415.3L219.1 420.5L219 407.5C218.5 371.6 218.4 372.9 221.1 367.6C222.7 364.2 224.8 361.9 227.7 360.1C232.6 357.2 233.5 355.4 235.1 346.5C236.1 340.6 236 339.2 234.2 333.7C233.1 330.3 231.9 326.4 231.7 325C231.4 323.3 231.2 323.8 231.1 326.5Z" fill="white"/>
<path d="M237.1 329.8C237 330.6 238.8 340.7 240.9 352.3C247 385.2 247 383.4 239.5 382.8C236.6 382.6 234.5 382.9 234.3 383.6C234.1 384.2 235.5 386.9 237.5 389.6C243 397.3 244.7 401 248.4 413.1C250.3 419.4 252.3 424.4 252.9 424.3C254.3 423.9 255.2 429.3 254.4 433.7C253.5 438.7 249.9 445 248.1 444.7C245.9 444.4 244.7 451.2 245.4 459.8C246 467.3 247.6 471.4 251.6 476.3C254.4 479.7 254.9 487 252.6 492.5C251.6 494.7 251.5 496.2 252.1 496.6C252.7 496.9 252.9 497.8 252.6 498.6C252.3 499.4 252.4 500 252.8 500C253.2 500 254.3 498.1 255.2 495.7C257.7 489.9 256.9 480.3 253.5 472.5C251 466.9 250.8 465.9 251.5 457.2C252.1 449.5 252.7 447 255.3 442.2C258.2 436.8 258.5 435.8 258.8 424C259.2 409.1 257.2 394 253.6 384.8C250.9 377.9 244.7 358 242.4 348.5C239.5 336.7 237.2 328.5 237.1 329.8Z" fill="white"/>
<path d="M152 337.3C152 337.6 153.7 338.9 155.8 340.1C160.9 343.3 168.9 350.8 170.6 354.2C172.4 357.7 172.4 360.6 170.5 361.4C169.6 361.7 169 361.4 169 360.6C169 359.2 161.3 350 160.1 350C159.7 350 159.6 351.5 159.8 353.3C160.2 356.6 160 356.7 154.1 359C150.8 360.2 147.6 361.8 147 362.5C145.1 364.8 144.7 370.8 146 377.2C147.3 384.1 151.9 399.4 152.5 398.8C152.7 398.6 151.5 393.8 149.9 388.1C147 377.6 146.2 368.8 148 366C148.7 364.8 151.5 364.4 160.2 364.2C166.4 364 172.1 363.3 172.8 362.7C176 360.1 170.8 350.8 162.6 344.2C157.8 340.3 152 336.6 152 337.3Z" fill="white"/>
<path d="M244.1 343.5C244.1 344 244.7 345.6 245.5 347C246.3 348.4 246.9 349 246.9 348.5C246.9 347.9 246.3 346.4 245.5 345C244.7 343.6 244.1 342.9 244.1 343.5Z" fill="white"/>
<path d="M247.2 350.5C248 353.3 257.4 373.9 257.7 373.6C258.3 373.1 252.6 359.7 249.4 354C248 351.5 247 350 247.2 350.5Z" fill="white"/>
<path d="M141.1 358.1C140.5 359.9 140.1 363.6 140.1 366.4L140.3 371.5L141 365C141.4 361.4 142.1 357.7 142.5 356.7C142.9 355.8 143 355 142.7 355C142.4 355 141.7 356.4 141.1 358.1Z" fill="white"/>
<path d="M247 358C247 359.2 250.1 368.4 254.9 381.2C261.1 397.9 263.4 412.3 262.6 429.5C262.2 437.3 262.3 439.3 263 436.5C264.4 430.2 264.1 411.4 262.5 401.2C261.5 394.9 259 386.6 255 376.4C249.7 362.5 247.1 356.6 247 358Z" fill="white"/>
<path d="M258.5 376.5C258.9 377.6 260.3 382.5 261.7 387.5C264.8 398.8 264.8 398.8 264.9 396.9C265 394.7 260.2 378.1 258.9 376.1C258 374.8 258 374.9 258.5 376.5Z" fill="white"/>
<path d="M144.6 386.6C144.2 388 144.1 389.4 144.3 389.7C144.6 389.9 145.1 388.9 145.4 387.4C145.8 386 145.9 384.6 145.7 384.3C145.4 384.1 144.9 385.1 144.6 386.6Z" fill="white"/>
<path d="M265.2 402C265.2 403.9 265.4 404.7 265.7 403.7C265.9 402.8 265.9 401.2 265.7 400.2C265.4 399.3 265.2 400.1 265.2 402Z" fill="white"/>
<path d="M156.1 402.2C155.9 403.5 164.2 417.2 170.6 426.2C183.9 445.1 193 467.3 188.8 470.8C186.6 472.6 180.3 471.2 179.7 468.8C179.4 467.7 178.5 467 177.8 467.2C174.5 468.3 176.5 488.5 180.6 495.7C183.3 500.4 185.5 501.6 184 497.5C182.2 492.7 181.2 483.8 182.2 480.3C183.2 476.6 183.1 476.6 188.3 478.1C194.3 479.7 196 478.7 196 473.4C196 466.9 193 459 183.1 439.2C174.1 421.2 169.2 413.4 166.3 412.3C164.6 411.6 159.1 406.2 157.3 403.4C156.7 402.4 156.1 401.8 156.1 402.2Z" fill="white"/>
<path d="M157 409C158.1 411.2 159.3 413 159.5 413C159.8 413 159.1 411.2 158 409C156.9 406.8 155.7 405 155.5 405C155.2 405 155.9 406.8 157 409Z" fill="white"/>
<path d="M266.3 410.5C266.3 413.2 266.5 414.3 266.7 412.7C266.9 411.2 266.9 409 266.7 407.7C266.5 406.5 266.3 407.7 266.3 410.5Z" fill="white"/>
<path d="M154 411.3C154 411.7 156.2 416.4 158.9 421.8C165.9 435.7 166.3 437.6 166.5 454.5C166.6 462.7 167.2 470.8 167.8 472.5C168.5 474.8 168.7 473.4 168.3 466.5C168 461.5 168.2 455.2 168.7 452.5C170 445.1 168.7 439.2 163.2 427.8C158.4 417.6 154 409.8 154 411.3Z" fill="white"/>
<path d="M161 416C161.6 417.1 162.3 418 162.6 418C162.8 418 162.6 417.1 162 416C161.4 414.9 160.7 414 160.4 414C160.2 414 160.4 414.9 161 416Z" fill="white"/>
<path d="M270.3 419C270.3 422 270.5 423.3 270.7 421.7C270.9 420.2 270.9 417.8 270.7 416.2C270.5 414.7 270.3 416 270.3 419Z" fill="white"/>
<path d="M267.3 421C267.3 424 267.5 425.3 267.7 423.7C267.9 422.2 267.9 419.8 267.7 418.2C267.5 416.7 267.3 418 267.3 421Z" fill="white"/>
<path d="M165.5 423C173.5 436.7 179.1 449.9 178.9 454.9C178.9 456.5 178.3 455.4 177.4 452C175.9 446.3 166.3 426.3 163 422C162 420.6 163.6 424.5 166.7 430.7C173.2 443.7 174.1 448.5 171.5 456.6C169.2 464 169.9 473.3 173.5 481.5C174.9 484.8 175.9 486.4 175.6 485C175.3 483.6 174.7 479.1 174.4 474.9C173.7 466.5 174.6 463.5 178.6 462C183.4 460.1 181.3 451.1 171.9 433C169.1 427.8 166 422.4 164.9 421C163.5 419.3 163.7 420 165.5 423Z" fill="white"/>
<path d="M225.7 430.2C224.7 431.3 222.9 434.7 221.7 437.8C219.9 442.7 219.6 445.7 219.6 458.5C219.6 473.9 219.7 474.4 225.5 494.3L227.1 500H239.3C247.7 499.9 251 499.6 249.8 499C248.9 498.4 247.9 496.2 247.5 494C247.1 491.6 245.4 488.3 243.3 485.8C238.9 480.5 234.8 472.4 232.1 463.6C230.4 458.2 230 454.2 230 444.1C230 429.9 229 426.7 225.7 430.2Z" fill="white"/>
<path d="M282.1 439.6C282.1 440.7 282.4 441 282.7 440.2C283 439.5 282.9 438.6 282.6 438.3C282.3 437.9 282 438.5 282.1 439.6Z" fill="white"/>
<path d="M169.2 478C169.2 479.4 169.4 479.9 169.7 479.2C169.9 478.6 169.9 477.4 169.7 476.7C169.4 476.1 169.2 476.6 169.2 478Z" fill="white"/>
<path d="M257.3 494.5C255.7 498.6 255.6 500 256.5 500C257.7 500 260.6 490.3 259.7 489.3C259.5 489.1 258.4 491.4 257.3 494.5Z" fill="white"/>
</svg>
