<svg width="50" height="50" viewBox="0 0 50 50" fill="none" xmlns="http://www.w3.org/2000/svg">
<path d="M32.7439 5.14692C32.8042 4.95076 32.8253 4.74464 32.8059 4.54032C32.7866 4.336 32.7272 4.1375 32.6312 3.95613C32.5351 3.77477 32.4043 3.6141 32.2461 3.4833C32.088 3.35249 31.9056 3.25412 31.7095 3.1938C31.5133 3.13347 31.3072 3.11237 31.1029 3.13171C30.8986 3.15104 30.7001 3.21043 30.5187 3.30648C30.3373 3.40253 30.1767 3.53336 30.0459 3.69151C29.9151 3.84965 29.8167 4.03201 29.7564 4.22817L17.2564 44.8532C17.1345 45.2493 17.1751 45.6777 17.369 46.044C17.563 46.4102 17.8946 46.6845 18.2907 46.8063C18.6869 46.9281 19.1152 46.8876 19.4815 46.6936C19.8478 46.4996 20.122 46.1681 20.2439 45.7719L32.7439 5.14692ZM15.1689 12.9563C15.3144 13.1014 15.4298 13.2739 15.5086 13.4637C15.5874 13.6535 15.6279 13.857 15.6279 14.0625C15.6279 14.2681 15.5874 14.4716 15.5086 14.6614C15.4298 14.8512 15.3144 15.0237 15.1689 15.1688L5.33448 25L15.1689 34.8313C15.4623 35.1247 15.6271 35.5226 15.6271 35.9375C15.6271 36.3525 15.4623 36.7504 15.1689 37.0438C14.8755 37.3372 14.4775 37.502 14.0626 37.502C13.6477 37.502 13.2498 37.3372 12.9564 37.0438L2.01886 26.1063C1.87335 25.9612 1.7579 25.7887 1.67913 25.5989C1.60036 25.4091 1.55981 25.2056 1.55981 25C1.55981 24.7945 1.60036 24.591 1.67913 24.4012C1.7579 24.2114 1.87335 24.0389 2.01886 23.8938L12.9564 12.9563C13.1015 12.8108 13.2739 12.6953 13.4638 12.6166C13.6536 12.5378 13.8571 12.4973 14.0626 12.4973C14.2681 12.4973 14.4716 12.5378 14.6615 12.6166C14.8513 12.6953 15.0237 12.8108 15.1689 12.9563ZM34.8314 12.9563C34.6858 13.1014 34.5704 13.2739 34.4916 13.4637C34.4129 13.6535 34.3723 13.857 34.3723 14.0625C34.3723 14.2681 34.4129 14.4716 34.4916 14.6614C34.5704 14.8512 34.6858 15.0237 34.8314 15.1688L44.6657 25L34.8314 34.8313C34.6861 34.9766 34.5708 35.149 34.4922 35.3388C34.4136 35.5287 34.3731 35.7321 34.3731 35.9375C34.3731 36.143 34.4136 36.3464 34.4922 36.5362C34.5708 36.7261 34.6861 36.8985 34.8314 37.0438C34.9766 37.1891 35.1491 37.3043 35.3389 37.3829C35.5287 37.4616 35.7322 37.502 35.9376 37.502C36.1431 37.502 36.3465 37.4616 36.5363 37.3829C36.7261 37.3043 36.8986 37.1891 37.0439 37.0438L47.9814 26.1063C48.1269 25.9612 48.2423 25.7887 48.3211 25.5989C48.3999 25.4091 48.4404 25.2056 48.4404 25C48.4404 24.7945 48.3999 24.591 48.3211 24.4012C48.2423 24.2114 48.1269 24.0389 47.9814 23.8938L37.0439 12.9563C36.8987 12.8108 36.7263 12.6953 36.5365 12.6166C36.3466 12.5378 36.1431 12.4973 35.9376 12.4973C35.7321 12.4973 35.5286 12.5378 35.3388 12.6166C35.1489 12.6953 34.9765 12.8108 34.8314 12.9563Z" fill="white"/>
</svg>
