<svg width="70" height="80" viewBox="0 0 70 80" fill="none" xmlns="http://www.w3.org/2000/svg">
<g clip-path="url(#clip0_98_77)">
<path d="M-0.012207 79.9999V0.0281208H13.7029V13.705H22.9267V-0.00817871H29.7078C29.7078 4.42842 29.9493 8.77629 29.567 13.0879C29.5026 13.8179 28.9714 14.5035 28.3274 15.1973L27.9733 15.5683C27.8123 15.7377 27.6514 15.895 27.4904 16.0644C27.3294 16.2338 27.1725 16.3951 27.0195 16.5605C26.8666 16.7259 26.7217 16.8993 26.5809 17.0768C26.5809 17.0768 26.5567 17.2381 26.6211 17.2825C29.6555 19.2991 29.8124 22.2273 29.7883 25.5305C29.6676 42.8736 29.732 60.2167 29.732 77.5598V80.008H23.0233V20.7188H13.7954V79.9999" fill="#1B1B1B"/>
<path d="M63.3518 68.4931V6.8485H54.2527V73.1878H69.988V79.9677H47.3992V0H69.988L70.0001 68.4931H63.3518Z" fill="#1B1B1B"/>
<path d="M41.7933 0H35.2456V79.9677H41.7933V0Z" fill="#1B1B1B"/>
</g>
<defs>
<clipPath id="clip0_98_77">
<rect width="70" height="80" fill="white"/>
</clipPath>
</defs>
</svg>
