<svg width="50" height="50" viewBox="0 0 50 50" fill="none" xmlns="http://www.w3.org/2000/svg">
<path d="M42.1081 2.48166L42.5729 2.01684C42.9228 1.66719 43.3381 1.38987 43.7951 1.20072C44.2522 1.01157 44.742 0.914284 45.2366 0.914429C45.7312 0.914574 46.221 1.01214 46.6779 1.20156C47.1348 1.39098 47.55 1.66855 47.8996 2.0184C48.2493 2.36826 48.5266 2.78356 48.7158 3.2406C48.9049 3.69763 49.0022 4.18745 49.002 4.68208C49.0019 5.1767 48.9043 5.66646 48.7149 6.12338C48.5255 6.58031 48.2479 6.99545 47.8981 7.3451L47.4333 7.8068C48.2284 8.69857 48.6523 9.86071 48.6181 11.055C48.5839 12.2493 48.0941 13.3853 47.2492 14.23L15.1424 46.34C14.9417 46.5396 14.6904 46.6809 14.4155 46.7486L1.93718 49.8682C1.67605 49.9332 1.40253 49.9296 1.14322 49.8576C0.883912 49.7857 0.647629 49.6479 0.457341 49.4576C0.267054 49.2673 0.129234 49.031 0.0572796 48.7717C-0.014675 48.5124 -0.0183168 48.2389 0.0467082 47.9777L3.1663 35.4994C3.23455 35.2256 3.37579 34.9755 3.57496 34.7756L33.654 4.69657C33.3532 4.48484 32.9872 4.38625 32.6207 4.41822C32.2543 4.45019 31.9109 4.61065 31.6513 4.87127L21.3816 15.1441C21.2365 15.2891 21.0644 15.4041 20.8749 15.4826C20.6854 15.5611 20.4823 15.6015 20.2772 15.6015C20.0721 15.6015 19.8691 15.5611 19.6796 15.4826C19.4901 15.4041 19.3179 15.2891 19.1729 15.1441C19.0279 14.999 18.9128 14.8269 18.8344 14.6374C18.7559 14.4479 18.7155 14.2448 18.7155 14.0397C18.7155 13.8346 18.7559 13.6316 18.8344 13.4421C18.9128 13.2526 19.0279 13.0804 19.1729 12.9354L29.4488 2.66572C30.2942 1.82036 31.431 1.3306 32.626 1.29695C33.821 1.26331 34.9836 1.68832 35.8752 2.48478C36.7323 1.71873 37.8415 1.29501 38.9911 1.29443C40.1406 1.29386 41.2502 1.71647 42.1081 2.48166ZM40.0991 4.87127C39.8066 4.57885 39.4099 4.41458 38.9963 4.41458C38.5827 4.41458 38.1861 4.57885 37.8936 4.87127L6.08311 36.6755L3.69975 46.2121L13.2363 43.8287L45.0468 12.0245C45.192 11.8796 45.3073 11.7075 45.3859 11.518C45.4645 11.3285 45.505 11.1253 45.505 10.9201C45.505 10.715 45.4645 10.5118 45.3859 10.3223C45.3073 10.1328 45.192 9.96071 45.0468 9.81581L40.1022 4.87127H40.0991Z" fill="white"/>
</svg>
